<?xml version="1.0" encoding="UTF-8" standalone="no"?>
<!DOCTYPE svg PUBLIC "-//W3C//DTD SVG 1.1//EN"
 "http://www.w3.org/Graphics/SVG/1.1/DTD/svg11.dtd">
<!-- Generated by graphviz version 2.40.1 (20161225.0304)
 -->
<!-- Title: compiler_explorer Pages: 1 -->
<svg width="618pt" height="483pt"
 viewBox="0.00 0.00 618.22 483.00" xmlns="http://www.w3.org/2000/svg" xmlns:xlink="http://www.w3.org/1999/xlink">
<g id="graph0" class="graph" transform="scale(1 1) rotate(0) translate(4 479)">
<title>compiler_explorer</title>
<polygon fill="#ffffff" stroke="transparent" points="-4,4 -4,-479 614.2156,-479 614.2156,4 -4,4"/>
<g id="clust1" class="cluster">
<title>cluster_ce_nodes</title>
<polygon fill="#99dd99" stroke="#99dd99" points="124.1047,-212 124.1047,-287 291.1047,-287 291.1047,-212 124.1047,-212"/>
<text text-anchor="middle" x="207.6047" y="-271.8" font-family="Times,serif" font-size="14.00" fill="#000000">Production</text>
</g>
<g id="clust2" class="cluster">
<title>cluster_beta_nodes</title>
<polygon fill="#dd99dd" stroke="#dd99dd" points="318.1047,-212 318.1047,-287 388.1047,-287 388.1047,-212 318.1047,-212"/>
<text text-anchor="middle" x="353.1047" y="-271.8" font-family="Times,serif" font-size="14.00" fill="#000000">Beta</text>
</g>
<g id="clust3" class="cluster">
<title>cluster_staging_nodes</title>
<polygon fill="#99dddd" stroke="#99dddd" points="415.1047,-212 415.1047,-287 485.1047,-287 485.1047,-212 415.1047,-212"/>
<text text-anchor="middle" x="450.1047" y="-271.8" font-family="Times,serif" font-size="14.00" fill="#000000">Staging</text>
</g>
<!-- outside -->
<g id="node1" class="node">
<title>outside</title>
<defs>
<linearGradient id="l_0" gradientUnits="userSpaceOnUse" x1="250.8752" y1="-457" x2="357.3342" y2="-457" >
<stop offset="0" style="stop-color:#dddddd;stop-opacity:1.;"/>
<stop offset="1" style="stop-color:#aaaaaa;stop-opacity:1.;"/>
</linearGradient>
</defs>
<polygon fill="url(#l_0)" stroke="#dddddd" points="357.3342,-475 272.6579,-475 250.8752,-439 335.5514,-439 357.3342,-475"/>
<text text-anchor="middle" x="304.1047" y="-453.3" font-family="Times,serif" font-size="14.00" fill="#000000">outside</text>
</g>
<!-- cloudfront -->
<g id="node2" class="node">
<title>cloudfront</title>
<defs>
<linearGradient id="l_1" gradientUnits="userSpaceOnUse" x1="256.713" y1="-385" x2="351.4963" y2="-385" >
<stop offset="0" style="stop-color:#dddddd;stop-opacity:1.;"/>
<stop offset="1" style="stop-color:#aaaaaa;stop-opacity:1.;"/>
</linearGradient>
</defs>
<ellipse fill="url(#l_1)" stroke="#dddddd" cx="304.1047" cy="-385" rx="47.3916" ry="18"/>
<text text-anchor="middle" x="304.1047" y="-381.3" font-family="Times,serif" font-size="14.00" fill="#000000">cloudfront</text>
</g>
<!-- outside&#45;&gt;cloudfront -->
<g id="edge1" class="edge">
<title>outside&#45;&gt;cloudfront</title>
<path fill="none" stroke="#000000" d="M304.1047,-428.5726C304.1047,-423.6792 304.1047,-418.5904 304.1047,-413.6901"/>
<polygon fill="#000000" stroke="#000000" points="300.6048,-428.8313 304.1047,-438.8314 307.6048,-428.8314 300.6048,-428.8313"/>
<polygon fill="#000000" stroke="#000000" points="307.6048,-413.4132 304.1047,-403.4133 300.6048,-413.4133 307.6048,-413.4132"/>
</g>
<!-- alb -->
<g id="node3" class="node">
<title>alb</title>
<defs>
<linearGradient id="l_2" gradientUnits="userSpaceOnUse" x1="222.1047" y1="-313" x2="386.1047" y2="-313" >
<stop offset="0" style="stop-color:#dddddd;stop-opacity:1.;"/>
<stop offset="1" style="stop-color:#aaaaaa;stop-opacity:1.;"/>
</linearGradient>
</defs>
<polygon fill="url(#l_2)" stroke="#dddddd" points="386.1047,-331 222.1047,-331 222.1047,-295 386.1047,-295 386.1047,-331"/>
<text text-anchor="middle" x="304.1047" y="-309.3" font-family="Times,serif" font-size="14.00" fill="#000000">Application Load Balancer</text>
</g>
<!-- cloudfront&#45;&gt;alb -->
<g id="edge2" class="edge">
<title>cloudfront&#45;&gt;alb</title>
<path fill="none" stroke="#000000" d="M304.1047,-356.5726C304.1047,-351.6792 304.1047,-346.5904 304.1047,-341.6901"/>
<polygon fill="#000000" stroke="#000000" points="300.6048,-356.8313 304.1047,-366.8314 307.6048,-356.8314 300.6048,-356.8313"/>
<polygon fill="#000000" stroke="#000000" points="307.6048,-341.4132 304.1047,-331.4133 300.6048,-341.4133 307.6048,-341.4132"/>
</g>
<!-- ce_node_1 -->
<g id="node4" class="node">
<title>ce_node_1</title>
<defs>
<linearGradient id="l_3" gradientUnits="userSpaceOnUse" x1="229.1047" y1="-238" x2="283.1047" y2="-238" >
<stop offset="0" style="stop-color:#dddddd;stop-opacity:1.;"/>
<stop offset="1" style="stop-color:#aaaaaa;stop-opacity:1.;"/>
</linearGradient>
</defs>
<polygon fill="url(#l_3)" stroke="#dddddd" points="283.1047,-256 229.1047,-256 229.1047,-220 283.1047,-220 283.1047,-256"/>
<text text-anchor="middle" x="256.1047" y="-234.3" font-family="Times,serif" font-size="14.00" fill="#000000">EC2</text>
</g>
<!-- alb&#45;&gt;ce_node_1 -->
<g id="edge3" class="edge">
<title>alb&#45;&gt;ce_node_1</title>
<path fill="none" stroke="#000000" d="M291.0913,-292.8834C291.0042,-292.7609 290.9171,-292.6383 290.83,-292.5157"/>
<polygon fill="#000000" stroke="#000000" points="283.8389,-288.7213 292.4852,-294.8446 289.5446,-284.6659 283.8389,-288.7213"/>
<polygon fill="#000000" stroke="#000000" points="295.5558,-293.1232 286.9096,-287 289.8502,-297.1786 295.5558,-293.1232"/>
</g>
<!-- ce_node_2 -->
<g id="node5" class="node">
<title>ce_node_2</title>
<defs>
<linearGradient id="l_4" gradientUnits="userSpaceOnUse" x1="132.1047" y1="-238" x2="186.1047" y2="-238" >
<stop offset="0" style="stop-color:#dddddd;stop-opacity:1.;"/>
<stop offset="1" style="stop-color:#aaaaaa;stop-opacity:1.;"/>
</linearGradient>
</defs>
<polygon fill="url(#l_4)" stroke="#dddddd" points="186.1047,-256 132.1047,-256 132.1047,-220 186.1047,-220 186.1047,-256"/>
<text text-anchor="middle" x="159.1047" y="-234.3" font-family="Times,serif" font-size="14.00" fill="#000000">EC2</text>
</g>
<!-- alb&#45;&gt;ce_node_2 -->
<g id="edge4" class="edge">
<title>alb&#45;&gt;ce_node_2</title>
<path fill="none" stroke="#000000" d="M214.9549,-290.6791C214.8087,-290.6062 214.6627,-290.5331 214.5169,-290.4597"/>
<polygon fill="#000000" stroke="#000000" points="213.6454,-293.9286 224.1964,-294.8919 216.549,-287.5592 213.6454,-293.9286"/>
<polygon fill="#000000" stroke="#000000" points="218.5674,-288.6682 208.1047,-287 215.2435,-294.8287 218.5674,-288.6682"/>
</g>
<!-- beta_node_1 -->
<g id="node6" class="node">
<title>beta_node_1</title>
<defs>
<linearGradient id="l_5" gradientUnits="userSpaceOnUse" x1="326.1047" y1="-238" x2="380.1047" y2="-238" >
<stop offset="0" style="stop-color:#dddddd;stop-opacity:1.;"/>
<stop offset="1" style="stop-color:#aaaaaa;stop-opacity:1.;"/>
</linearGradient>
</defs>
<polygon fill="url(#l_5)" stroke="#dddddd" points="380.1047,-256 326.1047,-256 326.1047,-220 380.1047,-220 380.1047,-256"/>
<text text-anchor="middle" x="353.1047" y="-234.3" font-family="Times,serif" font-size="14.00" fill="#000000">EC2</text>
</g>
<!-- alb&#45;&gt;beta_node_1 -->
<g id="edge5" class="edge">
<title>alb&#45;&gt;beta_node_1</title>
<path fill="none" stroke="#000000" d="M317.3396,-292.8834C317.4255,-292.7609 317.5113,-292.6383 317.5972,-292.5157"/>
<polygon fill="#000000" stroke="#000000" points="318.8359,-284.6456 315.9662,-294.8446 324.5697,-288.6612 318.8359,-284.6456"/>
<polygon fill="#000000" stroke="#000000" points="318.5904,-297.1989 321.4599,-287 312.8566,-293.1834 318.5904,-297.1989"/>
</g>
<!-- staging_node_1 -->
<g id="node7" class="node">
<title>staging_node_1</title>
<defs>
<linearGradient id="l_6" gradientUnits="userSpaceOnUse" x1="423.1047" y1="-238" x2="477.1047" y2="-238" >
<stop offset="0" style="stop-color:#dddddd;stop-opacity:1.;"/>
<stop offset="1" style="stop-color:#aaaaaa;stop-opacity:1.;"/>
</linearGradient>
</defs>
<polygon fill="url(#l_6)" stroke="#dddddd" points="477.1047,-256 423.1047,-256 423.1047,-220 477.1047,-220 477.1047,-256"/>
<text text-anchor="middle" x="450.1047" y="-234.3" font-family="Times,serif" font-size="14.00" fill="#000000">EC2</text>
</g>
<!-- alb&#45;&gt;staging_node_1 -->
<g id="edge6" class="edge">
<title>alb&#45;&gt;staging_node_1</title>
<path fill="none" stroke="#000000" d="M391.1447,-290.6411C393.5201,-289.4848 395.8454,-288.272 398.1047,-287 401.1399,-285.2912 404.1349,-283.3676 407.062,-281.2971"/>
<polygon fill="#000000" stroke="#000000" points="389.4739,-287.5539 381.7683,-294.8254 392.3267,-293.9463 389.4739,-287.5539"/>
<polygon fill="#000000" stroke="#000000" points="409.3013,-283.9906 415.1083,-275.1289 405.0425,-278.4351 409.3013,-283.9906"/>
</g>
<!-- admin -->
<g id="node8" class="node">
<title>admin</title>
<defs>
<linearGradient id="l_7" gradientUnits="userSpaceOnUse" x1="278.1047" y1="-165" x2="332.1047" y2="-165" >
<stop offset="0" style="stop-color:#ddddff;stop-opacity:1.;"/>
<stop offset="1" style="stop-color:#aaaacc;stop-opacity:1.;"/>
</linearGradient>
</defs>
<polygon fill="url(#l_7)" stroke="#ddddff" points="332.1047,-184 278.1047,-184 278.1047,-146 332.1047,-146 332.1047,-184"/>
<text text-anchor="middle" x="305.1047" y="-168.8" font-family="Times,serif" font-size="14.00" fill="#000000">admin</text>
<text text-anchor="middle" x="305.1047" y="-153.8" font-family="Times,serif" font-size="14.00" fill="#000000">EC2</text>
</g>
<!-- ce_node_1&#45;&gt;admin -->
<g id="edge12" class="edge">
<title>ce_node_1&#45;&gt;admin</title>
<path fill="none" stroke="#000000" d="M273.8261,-211.5987C277.926,-205.4907 282.3009,-198.973 286.4398,-192.8069"/>
<polygon fill="#000000" stroke="#000000" points="279.6419,-203.5749 273.217,-212 283.4936,-209.4203 279.6419,-203.5749"/>
<polygon fill="#000000" stroke="#000000" points="289.6083,-194.3665 292.2755,-184.1128 283.7962,-190.4652 289.6083,-194.3665"/>
</g>
<!-- efs -->
<g id="node9" class="node">
<title>efs</title>
<defs>
<linearGradient id="l_8" gradientUnits="userSpaceOnUse" x1="457.1047" y1="-93" x2="511.1047" y2="-93" >
<stop offset="0" style="stop-color:#dddddd;stop-opacity:1.;"/>
<stop offset="1" style="stop-color:#aaaaaa;stop-opacity:1.;"/>
</linearGradient>
</defs>
<polygon fill="url(#l_8)" stroke="#dddddd" points="511.1047,-109 508.1047,-113 487.1047,-113 484.1047,-109 457.1047,-109 457.1047,-73 511.1047,-73 511.1047,-109"/>
<text text-anchor="middle" x="484.1047" y="-87.3" font-family="Times,serif" font-size="14.00" fill="#000000">efs</text>
</g>
<!-- ce_node_1&#45;&gt;efs -->
<g id="edge14" class="edge">
<title>ce_node_1&#45;&gt;efs</title>
<path fill="none" stroke="#000000" d="M292.4537,-218.4798C297.6246,-216.101 302.9408,-213.8588 308.1047,-212 360.0412,-193.3047 384.5697,-216.6121 429.1047,-184 451.3153,-167.7356 466.1357,-139.5554 474.7398,-118.4666"/>
<polygon fill="#000000" stroke="#000000" points="295.6058,-210.2645 291.1047,-219.8559 300.6046,-215.1649 295.6058,-210.2645"/>
<polygon fill="#000000" stroke="#000000" points="478.0362,-119.6458 478.3646,-109.0561 471.504,-117.1297 478.0362,-119.6458"/>
</g>
<!-- s3 -->
<g id="node10" class="node">
<title>s3</title>
<defs>
<linearGradient id="l_9" gradientUnits="userSpaceOnUse" x1="265.1047" y1="-20" x2="319.1047" y2="-20" >
<stop offset="0" style="stop-color:#dddddd;stop-opacity:1.;"/>
<stop offset="1" style="stop-color:#aaaaaa;stop-opacity:1.;"/>
</linearGradient>
</defs>
<polygon fill="url(#l_9)" stroke="#dddddd" points="319.1047,-36 316.1047,-40 295.1047,-40 292.1047,-36 265.1047,-36 265.1047,0 319.1047,0 319.1047,-36"/>
<text text-anchor="middle" x="292.1047" y="-14.3" font-family="Times,serif" font-size="14.00" fill="#000000">s3</text>
</g>
<!-- ce_node_1&#45;&gt;s3 -->
<g id="edge16" class="edge">
<title>ce_node_1&#45;&gt;s3</title>
<path fill="none" stroke="#000000" d="M198.4989,-208.9355C148.1648,-195.3668 115.1977,-225.1143 77.1047,-184 43.1391,-147.3405 36.1635,-111.2457 67.1047,-72 90.0504,-42.8958 196.8069,-27.6931 254.6383,-21.4721"/>
<polygon fill="#000000" stroke="#000000" points="197.514,-212.295 208.1047,-212 199.6416,-205.6261 197.514,-212.295"/>
<polygon fill="#000000" stroke="#000000" points="255.2509,-24.9274 264.8361,-20.4137 254.5282,-17.9648 255.2509,-24.9274"/>
</g>
<!-- dynamodb -->
<g id="node11" class="node">
<title>dynamodb</title>
<defs>
<linearGradient id="l_10" gradientUnits="userSpaceOnUse" x1="89.1047" y1="-91" x2="163.1047" y2="-91" >
<stop offset="0" style="stop-color:#dddddd;stop-opacity:1.;"/>
<stop offset="1" style="stop-color:#aaaaaa;stop-opacity:1.;"/>
</linearGradient>
</defs>
<path fill="url(#l_10)" stroke="#dddddd" d="M163.1047,-105.7273C163.1047,-107.5331 146.5207,-109 126.1047,-109 105.6887,-109 89.1047,-107.5331 89.1047,-105.7273 89.1047,-105.7273 89.1047,-76.2727 89.1047,-76.2727 89.1047,-74.4669 105.6887,-73 126.1047,-73 146.5207,-73 163.1047,-74.4669 163.1047,-76.2727 163.1047,-76.2727 163.1047,-105.7273 163.1047,-105.7273"/>
<path fill="none" stroke="#dddddd" d="M163.1047,-105.7273C163.1047,-103.9214 146.5207,-102.4545 126.1047,-102.4545 105.6887,-102.4545 89.1047,-103.9214 89.1047,-105.7273"/>
<text text-anchor="middle" x="126.1047" y="-87.3" font-family="Times,serif" font-size="14.00" fill="#000000">dynamodb</text>
</g>
<!-- ce_node_1&#45;&gt;dynamodb -->
<g id="edge18" class="edge">
<title>ce_node_1&#45;&gt;dynamodb</title>
<path fill="none" stroke="#000000" d="M198.337,-208.8152C154.9107,-197.2147 124.0965,-222.2497 94.1047,-184 78.8696,-164.5702 91.0554,-137.4181 104.5455,-117.4667"/>
<polygon fill="#000000" stroke="#000000" points="197.5123,-212.2276 208.1047,-212 199.6823,-205.5724 197.5123,-212.2276"/>
<polygon fill="#000000" stroke="#000000" points="107.5423,-119.2941 110.5354,-109.1308 101.8577,-115.2093 107.5423,-119.2941"/>
</g>
<!-- ce_node_2&#45;&gt;admin -->
<g id="edge13" class="edge">
<title>ce_node_2&#45;&gt;admin</title>
<path fill="none" stroke="#000000" d="M217.1082,-207.4622C234.5591,-198.7213 253.112,-189.7214 268.6606,-182.2696"/>
<polygon fill="#000000" stroke="#000000" points="215.4594,-204.3738 208.1047,-212 218.6099,-210.6248 215.4594,-204.3738"/>
<polygon fill="#000000" stroke="#000000" points="270.2827,-185.3736 277.796,-177.9036 267.2642,-179.0578 270.2827,-185.3736"/>
</g>
<!-- ce_node_2&#45;&gt;efs -->
<g id="edge15" class="edge">
<title>ce_node_2&#45;&gt;efs</title>
<path fill="none" stroke="#000000" d="M217.6466,-208.8644C272.95,-192.0307 296.5863,-208.6737 354.1047,-184 393.2254,-167.2184 432.1401,-137.1561 457.0492,-115.7546"/>
<polygon fill="#000000" stroke="#000000" points="216.5122,-205.553 208.1047,-212 218.6976,-212.2032 216.5122,-205.553"/>
<polygon fill="#000000" stroke="#000000" points="459.3962,-118.3517 464.6269,-109.1381 454.7922,-113.0788 459.3962,-118.3517"/>
</g>
<!-- ce_node_2&#45;&gt;s3 -->
<g id="edge17" class="edge">
<title>ce_node_2&#45;&gt;s3</title>
<path fill="none" stroke="#000000" d="M122.263,-231.2657C95.53,-224.2901 61.0341,-210.5159 43.1047,-184 15.2043,-142.738 7.7749,-110.7225 39.1047,-72 65.798,-39.0081 190.9513,-25.2987 254.6517,-20.3817"/>
<polygon fill="#000000" stroke="#000000" points="113.9733,-229.5187 124.1047,-232.6187 118.1178,-223.8773 113.9733,-229.5187"/>
<polygon fill="#000000" stroke="#000000" points="254.9763,-23.8674 264.6914,-19.6405 254.4608,-16.8864 254.9763,-23.8674"/>
</g>
<!-- ce_node_2&#45;&gt;dynamodb -->
<g id="edge19" class="edge">
<title>ce_node_2&#45;&gt;dynamodb</title>
<path fill="none" stroke="#000000" d="M122.2211,-230.0192C81.7336,-220.423 20.654,-203.1925 7.1047,-184 -2.6356,-170.2029 -1.9939,-160.2285 7.1047,-146 22.9782,-121.1765 53.23,-107.3942 79.2583,-99.8342"/>
<polygon fill="#000000" stroke="#000000" points="113.8583,-228.5956 124.1047,-231.291 117.7756,-222.7942 113.8583,-228.5956"/>
<polygon fill="#000000" stroke="#000000" points="80.2324,-103.1967 88.9882,-97.2313 78.4234,-96.4345 80.2324,-103.1967"/>
</g>
<!-- beta_node_1&#45;&gt;admin -->
<g id="edge20" class="edge">
<title>beta_node_1&#45;&gt;admin</title>
<path fill="none" stroke="#000000" d="M335.7449,-211.5987C331.7287,-205.4907 327.4431,-198.973 323.3887,-192.8069"/>
<polygon fill="#000000" stroke="#000000" points="326.2683,-208.4169 336.2395,-212 330.6791,-202.9808 326.2683,-208.4169"/>
<polygon fill="#000000" stroke="#000000" points="326.0906,-190.5455 317.672,-184.1128 320.2417,-194.3913 326.0906,-190.5455"/>
</g>
<!-- beta_node_1&#45;&gt;efs -->
<g id="edge21" class="edge">
<title>beta_node_1&#45;&gt;efs</title>
<path fill="none" stroke="#000000" d="M389.3102,-218.6568C394.5318,-216.2332 399.9002,-213.9315 405.1047,-212 452.8043,-194.2973 484.8358,-224.136 516.1047,-184 531.2789,-164.5227 519.1011,-137.3767 505.6293,-117.4397"/>
<polygon fill="#000000" stroke="#000000" points="391.8381,-210.182 388.1047,-220.0975 397.2066,-214.6743 391.8381,-210.182"/>
<polygon fill="#000000" stroke="#000000" points="508.324,-115.1917 499.6481,-109.1106 502.6381,-119.2748 508.324,-115.1917"/>
</g>
<!-- beta_node_1&#45;&gt;s3 -->
<g id="edge22" class="edge">
<title>beta_node_1&#45;&gt;s3</title>
<path fill="none" stroke="#000000" d="M389.3899,-218.297C394.5705,-215.9462 399.9065,-213.7606 405.1047,-212 467.6842,-190.8049 509.0142,-234.9296 551.1047,-184 561.8637,-170.9816 553.1148,-162.7688 551.1047,-146 547.076,-112.3927 557.2554,-95.7155 533.1047,-72 504.6048,-44.0136 389.9372,-28.1611 329.621,-21.6044"/>
<polygon fill="#000000" stroke="#000000" points="392.4525,-209.9886 388.1047,-219.6504 397.5287,-214.8087 392.4525,-209.9886"/>
<polygon fill="#000000" stroke="#000000" points="329.6869,-18.092 319.3748,-20.5233 328.9523,-25.0533 329.6869,-18.092"/>
</g>
<!-- beta_node_1&#45;&gt;dynamodb -->
<g id="edge23" class="edge">
<title>beta_node_1&#45;&gt;dynamodb</title>
<path fill="none" stroke="#000000" d="M316.7525,-218.4886C311.5821,-216.1084 306.2669,-213.8635 301.1047,-212 249.5925,-193.4042 225.2608,-216.3968 181.1047,-184 158.909,-167.7153 144.0864,-139.5381 135.4777,-118.4555"/>
<polygon fill="#000000" stroke="#000000" points="308.6011,-215.1822 318.1047,-219.8658 313.5961,-210.2779 308.6011,-215.1822"/>
<polygon fill="#000000" stroke="#000000" points="138.7138,-117.1195 131.8506,-109.0481 132.1825,-119.6378 138.7138,-117.1195"/>
</g>
<!-- staging_node_1&#45;&gt;admin -->
<g id="edge24" class="edge">
<title>staging_node_1&#45;&gt;admin</title>
<path fill="none" stroke="#000000" d="M413.8978,-219.7717C391.7457,-208.6193 363.502,-194.4 341.344,-183.2446"/>
<polygon fill="#000000" stroke="#000000" points="406.1043,-215.6793 415.1047,-221.2693 411.5547,-211.2867 406.1043,-215.6793"/>
<polygon fill="#000000" stroke="#000000" points="342.7616,-180.0398 332.2558,-178.6692 339.6138,-186.2922 342.7616,-180.0398"/>
</g>
<!-- staging_node_1&#45;&gt;efs -->
<g id="edge25" class="edge">
<title>staging_node_1&#45;&gt;efs</title>
<path fill="none" stroke="#000000" d="M487.2273,-230.0542C527.978,-220.4906 589.4563,-203.2906 603.1047,-184 612.8592,-170.2129 612.2032,-160.2285 603.1047,-146 585.141,-117.9079 548.7632,-103.956 520.9314,-97.1604"/>
<polygon fill="#000000" stroke="#000000" points="491.9073,-223.195 485.1047,-231.3177 495.4879,-229.2101 491.9073,-223.195"/>
<polygon fill="#000000" stroke="#000000" points="521.6367,-93.7318 511.1142,-94.9676 520.1107,-100.5634 521.6367,-93.7318"/>
</g>
<!-- staging_node_1&#45;&gt;s3 -->
<g id="edge26" class="edge">
<title>staging_node_1&#45;&gt;s3</title>
<path fill="none" stroke="#000000" d="M487.4507,-234.3602C519.3546,-229.0547 563.4263,-216.0198 585.1047,-184 599.1805,-163.2095 582.1702,-81.3332 573.1047,-72 539.8392,-37.7523 398.1086,-24.4905 329.5484,-20.0081"/>
<polygon fill="#000000" stroke="#000000" points="494.1121,-229.3009 485.1047,-234.8793 495.6248,-236.1356 494.1121,-229.3009"/>
<polygon fill="#000000" stroke="#000000" points="329.3996,-16.4921 319.201,-19.3622 328.9635,-23.4785 329.3996,-16.4921"/>
</g>
<!-- staging_node_1&#45;&gt;dynamodb -->
<g id="edge27" class="edge">
<title>staging_node_1&#45;&gt;dynamodb</title>
<path fill="none" stroke="#000000" d="M413.8087,-218.3287C408.6297,-215.9731 403.2971,-213.7776 398.1047,-212 337.6584,-191.3065 315.7837,-209.2734 257.1047,-184 217.8094,-167.0753 178.5703,-137.0414 153.4292,-115.6856"/>
<polygon fill="#000000" stroke="#000000" points="405.6675,-214.87 415.1047,-219.686 410.7306,-210.0361 405.6675,-214.87"/>
<polygon fill="#000000" stroke="#000000" points="155.6372,-112.9679 145.7797,-109.0845 151.0639,-118.2675 155.6372,-112.9679"/>
</g>
<!-- admin&#45;&gt;efs -->
<g id="edge9" class="edge">
<title>admin&#45;&gt;efs</title>
<path fill="none" stroke="#000000" d="M341.9194,-149.7805C372.7812,-137.022 416.6211,-118.8983 447.4406,-106.1572"/>
<polygon fill="#000000" stroke="#000000" points="340.1952,-146.706 332.2909,-153.761 342.8696,-153.175 340.1952,-146.706"/>
<polygon fill="#000000" stroke="#000000" points="449.0522,-109.2783 456.9564,-102.2233 446.3778,-102.8093 449.0522,-109.2783"/>
</g>
<!-- admin&#45;&gt;s3 -->
<g id="edge10" class="edge">
<title>admin&#45;&gt;s3</title>
<path fill="none" stroke="#000000" d="M286.2304,-136.7806C281.6747,-128.4986 277.4478,-119.1891 275.1047,-110 269.6528,-88.6196 274.7737,-64.0245 280.7819,-45.6468"/>
<polygon fill="#000000" stroke="#000000" points="283.3479,-138.7838 291.4308,-145.6335 289.3836,-135.2383 283.3479,-138.7838"/>
<polygon fill="#000000" stroke="#000000" points="284.1108,-46.7312 284.1495,-36.1364 277.5123,-44.3946 284.1108,-46.7312"/>
</g>
<!-- admin&#45;&gt;dynamodb -->
<g id="edge11" class="edge">
<title>admin&#45;&gt;dynamodb</title>
<path fill="none" stroke="#000000" d="M268.4303,-149.8385C240.7068,-138.3774 202.4519,-122.5625 172.5841,-110.215"/>
<polygon fill="#000000" stroke="#000000" points="267.3398,-153.175 277.9184,-153.761 270.0142,-146.706 267.3398,-153.175"/>
<polygon fill="#000000" stroke="#000000" points="173.7841,-106.9238 163.2055,-106.3378 171.1097,-113.3928 173.7841,-106.9238"/>
</g>
<!-- build -->
<g id="node12" class="node">
<title>build</title>
<defs>
<linearGradient id="l_11" gradientUnits="userSpaceOnUse" x1="296.6047" y1="-91" x2="409.6047" y2="-91" >
<stop offset="0" style="stop-color:#ddddff;stop-opacity:1.;"/>
<stop offset="1" style="stop-color:#aaaacc;stop-opacity:1.;"/>
</linearGradient>
</defs>
<polygon fill="url(#l_11)" stroke="#ddddff" points="409.6047,-110 296.6047,-110 296.6047,-72 409.6047,-72 409.6047,-110"/>
<text text-anchor="middle" x="353.1047" y="-94.8" font-family="Times,serif" font-size="14.00" fill="#000000">Compiler Builder</text>
<text text-anchor="middle" x="353.1047" y="-79.8" font-family="Times,serif" font-size="14.00" fill="#000000">EC2</text>
</g>
<!-- admin&#45;&gt;build -->
<g id="edge7" class="edge">
<title>admin&#45;&gt;build</title>
<path fill="none" stroke="#000000" d="M323.0805,-137.2873C327.0044,-131.238 331.1579,-124.8347 335.0835,-118.7827"/>
<polygon fill="#000000" stroke="#000000" points="319.9715,-135.6488 317.4659,-145.9432 325.8442,-139.4582 319.9715,-135.6488"/>
<polygon fill="#000000" stroke="#000000" points="338.113,-120.5438 340.6186,-110.2495 332.2402,-116.7344 338.113,-120.5438"/>
</g>
<!-- build&#45;&gt;s3 -->
<g id="edge8" class="edge">
<title>build&#45;&gt;s3</title>
<path fill="none" stroke="#000000" d="M330.5435,-64.0006C325.1221,-57.5127 319.341,-50.5943 313.9527,-44.146"/>
<polygon fill="#000000" stroke="#000000" points="327.9797,-66.3908 337.0777,-71.8201 333.3512,-61.9022 327.9797,-66.3908"/>
<polygon fill="#000000" stroke="#000000" points="316.4922,-41.7267 307.3942,-36.2973 311.1207,-46.2152 316.4922,-41.7267"/>
</g>
</g>
</svg>
