<?xml version="1.0" encoding="UTF-8" standalone="no"?>
<!-- Created with Inkscape (http://www.inkscape.org/) -->
<svg
   xmlns:dc="http://purl.org/dc/elements/1.1/"
   xmlns:cc="http://creativecommons.org/ns#"
   xmlns:rdf="http://www.w3.org/1999/02/22-rdf-syntax-ns#"
   xmlns:svg="http://www.w3.org/2000/svg"
   xmlns="http://www.w3.org/2000/svg"
   xmlns:sodipodi="http://sodipodi.sourceforge.net/DTD/sodipodi-0.dtd"
   xmlns:inkscape="http://www.inkscape.org/namespaces/inkscape"
   id="svg2698"
   sodipodi:version="0.32"
   inkscape:version="0.46"
   width="453.76398"
   height="127.49855"
   xml:space="preserve"
   sodipodi:docname="One Ring inscription.svg"
   version="1.0"
   inkscape:output_extension="org.inkscape.output.svg.inkscape"><metadata
     id="metadata2703"><rdf:RDF><cc:Work
         rdf:about=""><dc:format>image/svg+xml</dc:format><dc:type
           rdf:resource="http://purl.org/dc/dcmitype/StillImage" /></cc:Work></rdf:RDF></metadata><defs
     id="defs2701"><inkscape:perspective
       sodipodi:type="inkscape:persp3d"
       inkscape:vp_x="0 : 526.18109 : 1"
       inkscape:vp_y="0 : 1000 : 0"
       inkscape:vp_z="744.09448 : 526.18109 : 1"
       inkscape:persp3d-origin="372.04724 : 350.78739 : 1"
       id="perspective2705" /><clipPath
       clipPathUnits="userSpaceOnUse"
       id="clipPath2935"><path
         d="M 0,0 L 0,0 L 0,0 L 0,0 z"
         id="path2937" /></clipPath><clipPath
       clipPathUnits="userSpaceOnUse"
       id="clipPath3247"><path
         d="M 0,0 L 0,0 L 0,0 L 0,0 z"
         id="path3249" /></clipPath><inkscape:perspective
       id="perspective3882"
       inkscape:persp3d-origin="372.04724 : 350.78739 : 1"
       inkscape:vp_z="744.09448 : 526.18109 : 1"
       inkscape:vp_y="0 : 1000 : 0"
       inkscape:vp_x="0 : 526.18109 : 1"
       sodipodi:type="inkscape:persp3d" /></defs><sodipodi:namedview
     inkscape:window-height="712"
     inkscape:window-width="1024"
     inkscape:pageshadow="2"
     inkscape:pageopacity="0.0"
     guidetolerance="10.0"
     gridtolerance="10.0"
     objecttolerance="10.0"
     borderopacity="1.0"
     bordercolor="#666666"
     pagecolor="#ffffff"
     id="base"
     showgrid="false"
     inkscape:zoom="1"
     inkscape:cx="148.40823"
     inkscape:cy="-0.36906806"
     inkscape:window-x="-4"
     inkscape:window-y="-4"
     inkscape:current-layer="g2707" /><g
     id="g2707"
     inkscape:groupmode="layer"
     inkscape:label="THE_ONE_RING"
     transform="matrix(1.25,0,0,-1.25,55.698758,192.41543)"><g
       id="g2709" /><g
       id="g2715"
       transform="matrix(3.5961261,0,0,3.5961261,-42.305698,-218.40281)"><path
         d="M 37.524,96.892 C 37.524,96.892 38.201,97.278 39.16,97.115 C 40.138,96.948 41.759,97.121 42.183,97.815 C 42.183,97.815 41.759,97.496 41.06,97.565 C 41.06,97.565 42.47,98.677 41.975,99.333 C 41.594,99.839 40.437,99.028 40.437,99.028 C 40.437,99.028 40.437,99.506 39.978,99.506 C 39.451,99.506 38.633,98.848 38.286,98.459 C 38.286,98.459 38.749,99.262 38.495,99.486 C 38.292,99.664 37.046,98.793 37.046,98.793 C 37.046,98.793 37.178,99.43 36.657,99.486 C 36.138,99.541 35.532,99.089 35.008,98.55 C 35.008,98.55 35.565,99.499 35.105,99.493 C 35.105,99.493 35.556,100.408 36.506,101.254 C 37.454,102.099 38.169,102.044 38.412,101.76 C 38.654,101.476 38.551,100.948 38.162,100.845 C 37.774,100.74 37.608,101.039 37.664,101.198 C 37.664,101.198 38.023,101.129 38.134,101.33 C 38.245,101.531 38.169,101.787 37.85,101.787 C 37.531,101.787 37.302,101.552 37.275,101.157 C 37.247,100.761 37.622,100.554 38.03,100.554 C 38.44,100.554 38.952,101.004 38.952,101.628 C 38.952,102.252 38.572,102.426 38.259,102.426 C 37.947,102.426 37.275,102.315 36.277,101.33 C 35.278,100.346 34.737,99.361 34.737,99.361 C 34.737,99.361 34.321,99.133 33.704,98.717 C 33.704,98.717 33.732,99.271 33.282,99.437 C 32.831,99.604 32.186,99.222 31.659,98.869 C 31.659,98.869 31.656,99.354 31.187,99.479 C 30.696,99.611 29.752,98.737 29.752,98.737 C 29.752,98.737 30.016,99.299 29.773,99.445 C 29.531,99.59 28.484,98.702 28.484,98.702 C 28.484,98.702 28.74,99.111 28.948,99.285 C 29.156,99.459 29.261,99.611 29.261,99.611 C 29.261,99.611 28.886,99.348 28.22,99.403 C 27.673,99.448 26.973,99.486 26.03,99.486 C 25.087,99.486 24.526,99.361 23.742,98.931 C 23.742,98.931 23.719,99.297 23.381,99.375 C 22.931,99.479 21.766,98.779 21.766,98.779 C 21.766,98.779 21.922,99.306 21.371,99.417 C 20.678,99.555 19.901,98.848 19.901,98.848 C 19.901,98.848 19.998,99.264 19.679,99.403 C 19.361,99.541 18.487,99.001 18.362,98.91 C 18.362,98.91 18.624,99.319 18.48,99.403 C 18.314,99.499 17.523,99.236 17.024,98.814 C 17.024,98.814 17.953,100.262 18.701,101.087 C 19.45,101.913 20.158,102.515 20.692,102.397 L 20.741,102.508 C 20.741,102.508 19.967,102.815 18.438,101.24 C 17.926,100.712 17.422,100.019 17.087,99.547 C 16.522,98.751 16.164,98.162 16.164,98.162 C 16.164,98.162 15.763,97.857 15.36,97.669 C 14.958,97.481 14.653,97.455 14.563,97.995 C 14.473,98.536 14.903,99.299 15.617,99.167 C 15.617,99.167 15.422,98.835 15.727,98.737 C 16.033,98.64 16.172,98.956 16.157,99.125 C 16.123,99.513 15.411,99.506 15.007,99.285 C 14.207,98.847 13.711,97.692 14.3,97.24 C 14.84,96.824 15.845,97.684 15.845,97.684 C 15.845,97.684 14.23,95.272 12.94,94.092 C 10.986,92.303 8.504,90.612 8.504,90.612 L 8.677,90.612 C 8.677,90.612 9.949,91.472 10.141,91.615 C 10.595,91.956 11.622,92.717 12.303,93.274 C 13.052,93.888 13.902,94.619 14.565,95.408 C 15.936,97.038 16.92,98.613 16.92,98.613 C 16.92,98.613 17.712,99.127 17.96,99.028 C 18.099,98.973 17.052,97.316 16.58,97.08 C 16.58,97.08 16.718,96.99 17.072,97.191 C 17.426,97.392 17.69,97.684 17.918,98.036 C 18.147,98.391 18.803,99.115 19.236,98.827 C 19.63,98.564 19.09,97.205 18.431,97.392 C 18.431,97.392 18.64,97.739 18.445,97.877 C 18.251,98.017 18.057,97.884 17.946,97.607 C 17.835,97.33 17.953,96.955 18.403,97.053 C 18.854,97.15 19.644,97.635 19.867,98.578 C 19.867,98.578 20.733,99.147 21.08,98.959 C 21.427,98.772 21.191,97.171 20.422,97.399 C 20.422,97.399 20.709,97.896 20.428,98.036 C 20.082,98.21 19.714,97.53 20.019,97.232 C 20.324,96.935 20.934,97.156 21.316,97.607 C 21.697,98.057 21.745,98.321 21.766,98.571 C 21.766,98.571 22.838,99.266 23.105,98.862 C 23.305,98.557 22.765,97.649 21.87,97.074 L 22.19,97.08 C 22.19,97.08 22.743,97.496 23.132,97.274 C 23.52,97.053 23.294,95.857 22.661,95.229 C 21.302,93.884 18.903,92.789 18.903,92.789 L 19.041,92.789 C 19.041,92.789 21.895,93.97 23.049,95.229 C 23.964,96.227 24.005,97.365 23.742,97.628 C 23.499,97.871 22.882,97.669 22.882,97.669 C 22.882,97.669 23.492,98.169 23.714,98.744 C 23.714,98.744 24.276,99.119 25.226,99.056 C 25.226,99.056 23.753,98.093 24.234,97.316 C 24.719,96.532 25.981,97.69 25.981,97.69 C 25.981,97.69 25.891,97.184 26.342,97.115 C 26.792,97.045 27.403,97.53 27.403,97.53 C 27.403,97.53 26.306,95.276 24.2,93.274 C 21.717,90.917 19.693,89.766 19.693,89.766 L 19.888,89.766 C 19.888,89.766 22.134,91.097 24.574,93.413 C 27.014,95.729 28.346,98.446 28.346,98.446 C 28.346,98.446 29.061,99.122 29.302,99.014 C 29.489,98.931 29.142,98.148 29.046,97.988 C 28.948,97.829 28.261,96.318 26.945,94.674 C 24.769,91.957 22.563,90.459 22.563,90.459 L 22.758,90.459 C 22.758,90.459 25.33,92.325 27.069,94.439 C 28.583,96.278 29.524,98.183 29.524,98.183 C 29.524,98.183 30.21,99.008 30.619,98.986 C 31.028,98.966 31.229,98.682 31.111,98.175 C 30.994,97.669 30.647,97.385 30.252,97.42 C 30.252,97.42 30.509,97.684 30.197,97.877 C 29.941,98.036 29.561,97.569 29.711,97.316 C 29.913,96.976 30.554,97.011 31.019,97.447 C 31.484,97.884 31.583,98.148 31.652,98.55 C 31.652,98.55 32.49,99.31 32.969,98.972 C 33.46,98.624 32.838,97.316 32.249,97.379 C 32.249,97.379 32.665,97.673 32.352,97.926 C 32.058,98.164 31.611,97.6 31.867,97.261 C 32.123,96.921 32.702,97.146 32.997,97.389 C 33.386,97.708 33.551,98.036 33.663,98.439 C 33.663,98.439 34.474,99.091 34.675,98.986 C 34.876,98.882 34.467,97.802 33.718,96.948 C 33.718,96.948 34.03,97.115 34.218,97.176 C 34.404,97.24 34.495,97.358 34.571,97.552 C 34.647,97.745 34.837,98.088 34.837,98.088 C 34.837,98.088 35.654,99.131 36.29,98.966 C 36.692,98.862 36.331,97.323 35.673,97.385 C 35.673,97.385 35.951,97.711 35.687,97.871 C 35.423,98.031 34.869,97.481 35.23,97.212 C 35.59,96.941 36.269,97.225 36.581,97.628 C 36.893,98.031 36.984,98.536 36.984,98.536 C 36.984,98.536 37.731,99.119 37.968,99.035 C 38.204,98.952 37.629,97.718 37.414,97.316 C 37.198,96.914 36.624,95.771 35.486,94.453 C 34.002,92.734 32.741,91.68 32.741,91.68 L 32.962,91.68 C 32.962,91.68 34.694,93.273 35.666,94.37 C 37.081,95.965 37.524,96.892 37.524,96.892 z M 25.989,97.908 C 25.989,97.908 25.059,97.168 24.836,97.663 C 24.585,98.218 25.094,98.892 25.63,99.061 C 25.63,99.061 26.288,98.98 26.77,99.007 C 26.77,99.007 26.064,98.464 25.989,97.908 z M 28.041,98.71 C 27.92,98.475 27.762,98.123 27.523,97.888 C 27.259,97.629 26.922,97.518 26.668,97.596 C 26.461,97.658 26.501,98.042 26.621,98.355 C 26.76,98.72 27.069,99.007 27.069,99.007 C 27.069,99.007 27.31,99.056 27.564,99.018 C 27.858,98.972 28.09,98.987 28.242,99.041 C 28.242,99.041 28.145,98.91 28.041,98.71 z M 40.373,98.702 C 40.373,98.702 41.133,99.392 41.421,98.952 C 41.844,98.303 40.755,97.545 40.755,97.545 C 40.103,97.476 39.521,97.628 39.521,97.628 C 40.373,98.28 40.373,98.702 40.373,98.702 z M 38.534,98.447 C 38.98,98.942 39.609,99.205 39.805,98.993 C 40.333,98.422 39.202,97.621 39.202,97.621 C 38.605,97.697 37.746,97.267 37.746,97.267 C 37.841,97.532 38.163,98.034 38.534,98.447 z"
         style="fill:#000000;fill-opacity:1;fill-rule:evenodd;stroke:none"
         id="path2717" /></g><g
       id="g2719"
       transform="matrix(3.5961261,0,0,3.5961261,-42.305698,-218.40281)"><path
         d="M 55.91,99.888 L 55.549,99.784 C 55.127,99.097 53.296,99.424 53.296,99.424 C 53.719,100.193 54.6,101.136 55.148,101.552 C 55.695,101.968 56.25,102.078 56.617,101.829 C 56.984,101.579 56.937,101.212 56.811,101.053 C 56.686,100.893 56.43,100.699 56.112,100.838 C 55.791,100.976 55.888,101.205 55.888,101.205 C 56.064,100.977 56.258,101.075 56.383,101.216 C 56.477,101.322 56.562,101.517 56.403,101.663 C 55.996,102.033 55.071,101.087 55.896,100.575 C 56.304,100.32 56.789,100.562 57.094,100.958 C 57.322,101.253 57.495,101.926 57.116,102.273 C 56.478,102.855 55.334,101.933 55.334,101.933 C 54.863,102.349 54.323,102.315 53.649,101.573 C 52.909,100.755 52.236,99.569 52.236,99.569 C 51.231,99.715 50.863,99.534 50.398,99.361 C 49.934,99.187 49.414,99.285 48.706,99.424 C 48,99.562 47.418,99.528 47.418,99.528 C 48.034,100.519 48.881,101.274 49.359,101.642 C 49.836,102.01 50.358,102.163 50.677,102.011 C 50.996,101.858 51.233,101.448 50.833,101.119 C 50.5,100.846 50.08,101.24 50.08,101.24 C 50.537,101.219 50.794,101.656 50.523,101.857 C 50.253,102.058 50.017,101.822 49.927,101.691 C 49.836,101.559 49.557,101.145 49.982,100.865 C 50.322,100.642 50.826,100.734 51.097,100.99 C 51.433,101.308 51.613,101.861 51.272,102.21 C 50.85,102.643 50.038,102.502 49.047,101.628 C 48.055,100.754 47.167,99.486 47.167,99.486 C 46.329,99.271 45.552,98.82 45.552,98.82 C 45.552,98.82 45.649,99.451 45.157,99.479 C 44.205,99.533 43.278,98.522 43.278,98.522 C 43.764,99.368 43.604,99.555 43.195,99.382 C 42.787,99.208 42.38,98.951 42.204,98.8 C 42.121,98.728 42.096,98.669 42.128,98.64 C 42.179,98.594 42.243,98.622 42.313,98.682 C 42.461,98.811 42.884,99.078 42.987,98.973 C 43.098,98.861 42.793,98.252 42.488,97.669 C 42.183,97.087 41.656,95.965 39.354,93.496 C 37.053,91.028 35.334,89.919 35.334,89.919 L 35.513,89.919 C 38.536,92.22 40.179,93.975 41.164,95.195 C 41.765,95.939 42.273,96.722 42.561,97.193 C 42.77,97.533 42.849,97.635 42.849,97.635 C 43.591,98.668 44.228,99.008 44.651,99.063 C 45.074,99.119 45.226,98.789 44.901,98.106 C 44.635,97.548 44.235,97.496 44.235,97.496 C 44.209,97.941 43.977,97.969 43.777,97.845 C 43.605,97.737 43.499,97.468 43.618,97.33 C 43.833,97.08 44.187,97.039 44.762,97.476 C 45.338,97.913 45.517,98.613 45.517,98.613 C 46.71,99.361 47.618,99.084 47.618,99.084 C 44.908,97.794 44.991,96.345 45.629,95.708 C 46.266,95.07 47.464,95.074 48.241,95.547 C 49.315,96.199 49.095,96.914 49.095,96.914 C 50.004,97.219 50.71,97.975 50.71,97.975 C 50.71,97.975 50.502,97.24 51.196,97.198 C 52.041,97.147 52.846,97.933 52.846,97.933 C 52.846,97.933 51.819,95.797 50.253,93.773 C 49.46,92.75 48.701,92.034 48.118,91.511 C 47.397,90.862 46.939,90.529 46.939,90.529 L 47.105,90.529 C 49.629,92.401 51.237,94.522 52.215,96.158 C 53.192,97.794 53.817,98.973 53.817,98.973 C 55.175,98.889 55.91,99.888 55.91,99.888 z M 53.103,100.602 C 53.629,101.337 54.044,101.663 54.337,101.739 C 54.627,101.815 54.877,101.552 54.877,101.552 C 54.163,101.059 53.096,99.472 53.096,99.472 L 52.402,99.562 C 52.402,99.562 52.576,99.867 53.103,100.602 z M 50.155,97.697 C 49.643,97.263 49.088,97.082 49.088,97.082 C 49.088,97.082 49.097,97.503 48.801,97.752 C 48.436,98.062 48.15,97.919 47.96,97.706 C 47.771,97.494 47.716,97.119 48.039,96.884 C 48.362,96.648 48.825,96.787 48.825,96.787 C 48.855,96.384 48.592,96.086 48.252,95.906 C 47.653,95.589 46.855,95.533 46.232,96.006 C 45.449,96.6 45.678,97.498 46.393,98.122 C 47.11,98.747 47.877,98.95 48.136,98.959 C 48.394,98.969 48.668,98.839 49.144,98.843 C 49.62,98.848 49.878,99.014 50.35,99.194 C 50.821,99.375 51.589,99.226 51.589,99.226 C 51.297,98.848 50.669,98.132 50.155,97.697 z M 48.801,97.008 C 48.122,96.958 47.993,97.48 48.103,97.591 C 48.214,97.702 48.367,97.684 48.548,97.522 C 48.789,97.303 48.801,97.008 48.801,97.008 z M 53.434,98.98 L 53.137,98.446 C 53.137,98.446 51.883,97.084 51.376,97.808 C 50.952,98.411 51.972,99.208 51.972,99.208 C 51.972,99.208 52.79,99.022 53.434,98.98 z"
         style="fill:#000000;fill-opacity:1;fill-rule:evenodd;stroke:none"
         id="path2721" /></g><g
       id="g2723"
       transform="matrix(3.5961261,0,0,3.5961261,-42.305698,-218.40281)"><path
         d="M 54.863,97.517 C 54.863,97.621 54.822,97.829 54.6,97.829 C 54.378,97.829 54.246,97.656 54.246,97.51 C 54.246,97.365 54.35,97.205 54.551,97.205 C 54.745,97.205 54.863,97.413 54.863,97.517 z"
         style="fill:#000000;fill-opacity:1;fill-rule:evenodd;stroke:none"
         id="path2725" /></g><g
       id="g2727"
       transform="matrix(3.5961261,0,0,3.5961261,-42.305698,-218.40281)"><path
         d="M 44.425,100.175 C 44.479,100.128 44.637,100.202 44.805,100.475 C 44.972,100.748 45.099,101.326 44.936,101.446 C 44.805,101.542 44.597,101.317 44.584,101.225 C 44.558,101.04 44.766,101.018 44.611,100.581 C 44.521,100.332 44.355,100.236 44.425,100.175 z"
         style="fill:#000000;fill-opacity:1;fill-rule:evenodd;stroke:none"
         id="path2729" /></g><g
       id="g2731"
       transform="matrix(3.5961261,0,0,3.5961261,-42.305698,-218.40281)"><path
         d="M 45.051,100.449 C 45.185,100.406 45.306,100.696 45.387,100.872 C 45.466,101.049 45.669,101.313 45.774,101.454 C 45.881,101.596 45.96,101.86 45.872,101.896 C 45.784,101.931 45.704,101.851 45.554,101.684 C 45.404,101.517 45.354,101.219 45.228,100.907 C 45.138,100.687 44.932,100.487 45.051,100.449 z"
         style="fill:#000000;fill-opacity:1;fill-rule:evenodd;stroke:none"
         id="path2733" /></g><g
       id="g2735"
       transform="matrix(3.5961261,0,0,3.5961261,-42.305698,-218.40281)"><path
         d="M 45.528,100.801 C 45.413,100.563 45.396,100.546 45.351,100.378 C 45.306,100.21 45.493,100.166 45.564,100.405 C 45.609,100.557 45.846,100.837 45.996,100.907 C 46.177,100.993 46.419,101.252 46.208,101.366 C 45.996,101.481 45.643,101.04 45.528,100.801 z"
         style="fill:#000000;fill-opacity:1;fill-rule:evenodd;stroke:none"
         id="path2737" /></g><g
       id="g2739"
       transform="matrix(3.5961261,0,0,3.5961261,-42.305698,-218.40281)"><path
         d="M 22.643,100.175 C 22.696,100.128 22.854,100.202 23.022,100.475 C 23.19,100.748 23.316,101.326 23.154,101.446 C 23.022,101.542 22.814,101.317 22.801,101.225 C 22.775,101.04 22.984,101.018 22.828,100.581 C 22.738,100.332 22.571,100.236 22.643,100.175 z"
         style="fill:#000000;fill-opacity:1;fill-rule:evenodd;stroke:none"
         id="path2741" /></g><g
       id="g2743"
       transform="matrix(3.5961261,0,0,3.5961261,-42.305698,-218.40281)"><path
         d="M 23.269,100.449 C 23.403,100.406 23.525,100.696 23.605,100.872 C 23.683,101.049 23.887,101.313 23.993,101.454 C 24.098,101.596 24.178,101.86 24.09,101.896 C 24.001,101.931 23.922,101.851 23.772,101.684 C 23.622,101.517 23.572,101.219 23.445,100.907 C 23.356,100.687 23.15,100.487 23.269,100.449 z"
         style="fill:#000000;fill-opacity:1;fill-rule:evenodd;stroke:none"
         id="path2745" /></g><g
       id="g2747"
       transform="matrix(3.5961261,0,0,3.5961261,-42.305698,-218.40281)"><path
         d="M 23.746,100.801 C 23.63,100.563 23.613,100.546 23.569,100.378 C 23.525,100.21 23.71,100.166 23.781,100.405 C 23.826,100.557 24.063,100.837 24.213,100.907 C 24.396,100.993 24.636,101.252 24.424,101.366 C 24.213,101.481 23.86,101.04 23.746,100.801 z"
         style="fill:#000000;fill-opacity:1;fill-rule:evenodd;stroke:none"
         id="path2749" /></g><g
       id="g2751"
       transform="matrix(3.5961261,0,0,3.5961261,-42.305698,-218.40281)"><path
         d="M 15.471,100.175 C 15.525,100.128 15.684,100.202 15.851,100.475 C 16.019,100.748 16.146,101.326 15.983,101.446 C 15.851,101.542 15.644,101.317 15.63,101.225 C 15.604,101.04 15.813,101.018 15.657,100.581 C 15.568,100.332 15.401,100.236 15.471,100.175 z"
         style="fill:#000000;fill-opacity:1;fill-rule:evenodd;stroke:none"
         id="path2753" /></g><g
       id="g2755"
       transform="matrix(3.5961261,0,0,3.5961261,-42.305698,-218.40281)"><path
         d="M 16.098,100.449 C 16.232,100.406 16.354,100.696 16.434,100.872 C 16.513,101.049 16.716,101.313 16.821,101.454 C 16.927,101.596 17.007,101.86 16.919,101.896 C 16.83,101.931 16.751,101.851 16.601,101.684 C 16.451,101.517 16.402,101.219 16.275,100.907 C 16.185,100.687 15.979,100.487 16.098,100.449 z"
         style="fill:#000000;fill-opacity:1;fill-rule:evenodd;stroke:none"
         id="path2757" /></g><g
       id="g2759"
       transform="matrix(3.5961261,0,0,3.5961261,-42.305698,-218.40281)"><path
         d="M 16.575,100.801 C 16.46,100.563 16.442,100.546 16.398,100.378 C 16.354,100.21 16.539,100.166 16.61,100.405 C 16.655,100.557 16.892,100.837 17.042,100.907 C 17.224,100.993 17.466,101.252 17.254,101.366 C 17.042,101.481 16.689,101.04 16.575,100.801 z"
         style="fill:#000000;fill-opacity:1;fill-rule:evenodd;stroke:none"
         id="path2761" /></g><g
       id="g2763"
       transform="matrix(3.5961261,0,0,3.5961261,-42.305698,-218.40281)"><path
         d="M 60.749,100.175 C 60.803,100.128 60.961,100.202 61.128,100.475 C 61.296,100.748 61.424,101.326 61.261,101.446 C 61.128,101.542 60.92,101.317 60.908,101.225 C 60.882,101.04 61.09,101.018 60.935,100.581 C 60.846,100.332 60.679,100.236 60.749,100.175 z"
         style="fill:#000000;fill-opacity:1;fill-rule:evenodd;stroke:none"
         id="path2765" /></g><g
       id="g2767"
       transform="matrix(3.5961261,0,0,3.5961261,-42.305698,-218.40281)"><path
         d="M 61.376,100.449 C 61.509,100.406 61.632,100.696 61.71,100.872 C 61.79,101.049 61.993,101.313 62.099,101.454 C 62.205,101.596 62.284,101.86 62.197,101.896 C 62.108,101.931 62.029,101.851 61.878,101.684 C 61.728,101.517 61.679,101.219 61.553,100.907 C 61.463,100.687 61.256,100.487 61.376,100.449 z"
         style="fill:#000000;fill-opacity:1;fill-rule:evenodd;stroke:none"
         id="path2769" /></g><g
       id="g2771"
       transform="matrix(3.5961261,0,0,3.5961261,-42.305698,-218.40281)"><path
         d="M 61.852,100.801 C 61.737,100.563 61.72,100.546 61.675,100.378 C 61.632,100.21 61.817,100.166 61.887,100.405 C 61.932,100.557 62.169,100.837 62.32,100.907 C 62.501,100.993 62.743,101.252 62.531,101.366 C 62.32,101.481 61.966,101.04 61.852,100.801 z"
         style="fill:#000000;fill-opacity:1;fill-rule:evenodd;stroke:none"
         id="path2773" /></g><g
       id="g2775"
       transform="matrix(3.5961261,0,0,3.5961261,-42.305698,-218.40281)"><path
         d="M 67.848,100.175 C 67.902,100.128 68.06,100.202 68.228,100.475 C 68.395,100.748 68.522,101.326 68.36,101.446 C 68.228,101.542 68.02,101.317 68.007,101.225 C 67.981,101.04 68.189,101.018 68.033,100.581 C 67.946,100.332 67.778,100.236 67.848,100.175 z"
         style="fill:#000000;fill-opacity:1;fill-rule:evenodd;stroke:none"
         id="path2777" /></g><g
       id="g2779"
       transform="matrix(3.5961261,0,0,3.5961261,-42.305698,-218.40281)"><path
         d="M 68.475,100.449 C 68.608,100.406 68.731,100.696 68.81,100.872 C 68.89,101.049 69.092,101.313 69.198,101.454 C 69.304,101.596 69.384,101.86 69.296,101.896 C 69.207,101.931 69.127,101.851 68.978,101.684 C 68.828,101.517 68.777,101.219 68.651,100.907 C 68.561,100.687 68.356,100.487 68.475,100.449 z"
         style="fill:#000000;fill-opacity:1;fill-rule:evenodd;stroke:none"
         id="path2781" /></g><g
       id="g2783"
       transform="matrix(3.5961261,0,0,3.5961261,-42.305698,-218.40281)"><path
         d="M 68.951,100.801 C 68.836,100.563 68.82,100.546 68.775,100.378 C 68.731,100.21 68.916,100.166 68.987,100.405 C 69.032,100.557 69.269,100.837 69.418,100.907 C 69.601,100.993 69.843,101.252 69.63,101.366 C 69.418,101.481 69.066,101.04 68.951,100.801 z"
         style="fill:#000000;fill-opacity:1;fill-rule:evenodd;stroke:none"
         id="path2785" /></g><g
       id="g2787"
       transform="matrix(3.5961261,0,0,3.5961261,-42.305698,-218.40281)"><path
         d="M 85.937,100.175 C 85.991,100.128 86.149,100.202 86.317,100.475 C 86.484,100.748 86.611,101.326 86.449,101.446 C 86.317,101.542 86.11,101.317 86.096,101.225 C 86.069,101.04 86.278,101.018 86.123,100.581 C 86.034,100.332 85.867,100.236 85.937,100.175 z"
         style="fill:#000000;fill-opacity:1;fill-rule:evenodd;stroke:none"
         id="path2789" /></g><g
       id="g2791"
       transform="matrix(3.5961261,0,0,3.5961261,-42.305698,-218.40281)"><path
         d="M 86.565,100.449 C 86.697,100.406 86.82,100.696 86.899,100.872 C 86.979,101.049 87.182,101.313 87.287,101.454 C 87.393,101.596 87.472,101.86 87.384,101.896 C 87.296,101.931 87.216,101.851 87.067,101.684 C 86.917,101.517 86.867,101.219 86.74,100.907 C 86.651,100.687 86.444,100.487 86.565,100.449 z"
         style="fill:#000000;fill-opacity:1;fill-rule:evenodd;stroke:none"
         id="path2793" /></g><g
       id="g2795"
       transform="matrix(3.5961261,0,0,3.5961261,-42.305698,-218.40281)"><path
         d="M 87.04,100.801 C 86.925,100.563 86.908,100.546 86.863,100.378 C 86.82,100.21 87.005,100.166 87.076,100.405 C 87.121,100.557 87.358,100.837 87.508,100.907 C 87.689,100.993 87.931,101.252 87.72,101.366 C 87.508,101.481 87.155,101.04 87.04,100.801 z"
         style="fill:#000000;fill-opacity:1;fill-rule:evenodd;stroke:none"
         id="path2797" /></g><g
       id="g2799"
       transform="matrix(3.5961261,0,0,3.5961261,-42.305698,-218.40281)"><path
         d="M 93.473,99.702 C 93.188,98.907 91.975,99.167 91.01,99.361 C 90.047,99.555 89.221,99.597 89.221,99.597 C 90.012,100.727 90.733,101.351 91.441,101.794 C 92.148,102.238 92.46,102.092 92.639,101.975 C 92.82,101.857 92.992,101.618 92.861,101.295 C 92.766,101.059 92.46,100.907 92.181,101.018 C 91.905,101.129 92.036,101.343 92.036,101.343 C 92.515,101.143 92.625,101.635 92.424,101.794 C 92.223,101.954 91.987,101.829 91.877,101.712 C 91.766,101.593 91.392,101.102 91.891,100.796 C 92.457,100.45 92.883,100.845 93.07,101.045 C 93.256,101.247 93.638,101.94 93.104,102.391 C 92.571,102.841 91.697,102.336 90.844,101.642 C 89.992,100.948 88.964,99.604 88.964,99.604 C 87.807,99.52 86.927,99.056 86.927,99.056 C 86.927,99.056 86.955,99.645 86.456,99.611 C 85.618,99.552 84.723,98.764 84.723,98.764 C 84.895,99.097 85.076,99.639 84.792,99.645 C 84.508,99.652 83.419,98.897 83.419,98.897 C 83.419,98.897 83.578,99.534 82.913,99.59 C 82.247,99.645 81.665,99.147 81.665,99.147 C 81.679,99.271 81.617,99.583 81.083,99.611 C 80.548,99.639 79.53,98.855 79.53,98.855 C 79.614,99.008 79.814,99.541 79.614,99.59 C 79.27,99.673 78.17,98.924 78.17,98.924 C 78.358,99.348 78.566,99.576 78.566,99.576 C 75.626,100.11 73.754,98.924 73.754,98.924 C 73.962,99.299 74.393,99.784 74.393,99.784 C 74.13,99.797 74.151,99.576 73.56,99.52 C 72.971,99.465 71.994,99.645 70.87,99.562 C 69.748,99.479 68.701,98.862 68.701,98.862 C 68.749,98.986 68.798,99.555 68.382,99.534 C 67.966,99.513 66.752,98.744 66.752,98.744 C 66.752,98.744 66.874,99.36 66.482,99.52 C 66,99.716 65.067,99.014 65.067,99.014 C 65.067,99.014 65.047,99.479 64.701,99.562 C 64.101,99.706 63.272,98.897 63.272,98.897 C 63.272,98.897 63.605,99.465 63.383,99.569 C 63.161,99.673 62.579,99.222 62.579,99.222 C 63.772,101.205 63.965,101.524 64.548,102.051 C 65.152,102.597 65.63,102.508 65.63,102.508 L 65.712,102.648 C 64.911,102.643 64.09,102.014 63.511,101.232 C 62.495,99.856 61.692,98.515 61.692,98.515 C 60.666,97.572 60.111,97.641 59.876,97.739 C 59.64,97.836 59.487,98.529 59.833,98.931 C 60.231,99.391 60.653,99.194 60.653,99.194 C 60.653,99.194 60.449,98.917 60.66,98.8 C 60.766,98.739 60.943,98.754 61.091,98.903 C 61.24,99.052 61.26,99.317 61.013,99.499 C 60.635,99.776 59.741,99.258 59.393,98.728 C 59.047,98.197 59.041,97.584 59.341,97.344 C 59.964,96.845 61.442,98.113 61.442,98.113 C 60.874,97.184 59.861,95.284 57.907,93.177 C 56.117,91.249 54.675,90.32 54.675,90.32 L 54.843,90.32 C 55.678,90.801 56.873,91.93 58.15,93.171 C 59.209,94.202 60.119,95.34 60.762,96.339 C 61.586,97.615 62.184,98.592 62.336,98.764 C 62.488,98.938 62.829,99.16 62.899,99.084 C 62.967,99.008 62.857,98.709 62.537,98.127 C 62.218,97.545 61.872,97.184 61.872,97.184 C 61.872,97.184 62.44,97.299 62.741,97.894 C 63.326,99.046 64.231,99.205 64.368,99.056 C 64.52,98.889 64.589,98.515 64.284,97.988 C 63.914,97.348 63.605,97.545 63.605,97.545 C 63.605,97.545 63.98,97.794 63.73,98.044 C 63.326,98.448 62.935,97.594 63.189,97.392 C 63.569,97.093 63.952,97.225 64.437,97.684 C 64.923,98.141 65.047,98.723 65.047,98.723 C 65.948,99.389 66.264,99.04 66.143,98.28 C 66.041,97.645 65.602,97.572 65.602,97.572 C 65.602,97.572 65.741,97.739 65.491,97.919 C 65.143,98.17 64.811,97.614 65.02,97.365 C 65.196,97.153 65.477,97.087 66.046,97.559 C 66.614,98.031 66.67,98.474 66.67,98.474 C 66.67,98.474 68.055,99.333 68.14,98.904 C 68.267,98.241 66.85,97.171 66.85,97.171 L 67.183,97.171 C 67.377,97.295 67.723,97.379 67.889,97.323 C 68.055,97.267 68.891,96.685 67.348,94.993 C 65.521,92.987 63.802,91.818 63.802,91.818 L 64.007,91.818 C 67.348,94.215 68.833,95.825 68.777,97.115 C 68.736,98.073 67.612,97.559 67.612,97.559 C 68.305,98.099 68.652,98.695 68.652,98.695 C 69.775,99.18 70.44,99.167 70.44,99.167 C 70.44,99.167 69.096,98.266 69.36,97.572 C 69.657,96.79 70.995,97.6 70.995,97.6 C 71.328,96.699 72.728,97.739 72.728,97.739 C 72.728,97.739 71.772,96.019 70.372,94.175 C 68.675,91.942 66.295,90.362 66.295,90.362 L 66.434,90.362 C 67.211,90.958 68.944,92.123 70.635,94.204 C 72.327,96.283 73.616,98.661 73.616,98.661 C 74.331,99.043 74.975,99.16 74.975,99.16 C 74.975,99.16 73.657,98.196 73.984,97.496 C 74.31,96.796 75.599,97.656 75.599,97.656 C 75.91,96.831 76.979,97.572 76.979,97.572 C 76.979,97.572 75.828,95.826 74.559,94.467 C 72.31,92.058 69.678,90.293 69.678,90.293 L 69.859,90.293 C 69.859,90.293 72.881,92.33 75.044,94.619 C 76.944,96.63 77.977,98.571 77.977,98.571 C 78.462,98.924 79.003,99.244 79.099,99.147 C 79.196,99.049 79.051,98.695 78.816,98.293 C 78.58,97.891 77.776,96.505 75.973,94.314 C 74.171,92.123 72.34,90.723 72.34,90.723 L 72.493,90.723 C 72.493,90.723 74.088,91.971 75.904,93.912 C 77.72,95.853 78.379,96.983 78.379,96.983 C 78.379,96.983 78.746,97.286 79.274,97.295 C 80.105,97.309 80.777,96.881 81.7,97.053 C 83.248,97.34 83.53,97.843 83.53,97.843 C 82.49,97.323 82.088,97.461 82.088,97.461 C 83.079,98.017 83.412,98.744 83.412,98.744 C 83.835,99.077 84.272,99.278 84.404,99.16 C 84.535,99.043 84.163,98.27 83.823,97.705 C 83.481,97.141 82.364,95.263 80.802,93.582 C 78.701,91.324 77.269,90.313 77.269,90.313 L 77.426,90.313 C 77.426,90.313 80.415,92.662 82.141,94.804 C 83.613,96.629 84.545,98.336 84.545,98.336 C 85.425,99.268 86.081,99.164 86.199,99.058 C 86.318,98.953 86.568,98.546 86.056,97.969 C 85.544,97.391 85.293,97.679 85.293,97.679 C 85.293,97.679 85.332,97.863 85.215,98.008 C 85.027,98.238 84.425,97.809 84.768,97.391 C 85.087,97.002 85.661,97.299 86.226,97.759 C 86.79,98.218 86.922,98.861 86.922,98.861 C 88.379,99.584 89.523,99.164 89.523,99.164 C 87.211,98.402 86.738,96.839 86.935,96.077 C 87.132,95.317 88.288,94.988 89.417,95.329 C 90.548,95.671 91.072,96.511 91.007,97.01 C 90.94,97.509 90.35,97.824 89.772,97.679 C 89.194,97.535 89.141,96.839 89.575,96.852 C 90.009,96.865 89.917,97.403 89.917,97.403 C 90.416,97.614 91.007,96.931 90.455,96.222 C 89.902,95.513 88.721,95.513 88.012,95.841 C 87.303,96.17 86.935,96.984 87.947,98.034 C 88.92,99.044 90.13,99.043 90.13,99.043 C 90.13,99.043 91.44,98.72 92.119,98.814 C 93.469,98.998 93.938,99.836 93.938,99.836 L 93.473,99.702 z M 71.01,97.829 C 71.01,97.829 70.137,97.361 69.962,97.767 C 69.797,98.154 70.288,99.049 71.107,99.208 C 71.107,99.208 71.62,99.194 72.049,99.153 C 72.049,99.153 71.141,98.474 71.01,97.829 z M 72.902,98.057 C 72.902,98.057 71.89,97.483 71.585,97.822 C 71.323,98.113 72.022,98.986 72.403,99.139 C 72.403,99.139 73.027,99.111 73.665,99.306 C 73.665,99.306 73.354,98.848 72.902,98.057 z M 75.612,97.899 C 75.612,97.899 74.799,97.438 74.566,97.767 C 74.365,98.051 74.691,98.904 75.439,99.187 C 75.439,99.187 76.125,99.285 76.611,99.25 C 76.611,99.25 75.557,98.515 75.612,97.899 z M 77.173,97.94 C 77.173,97.94 76.469,97.582 76.174,97.815 C 75.884,98.044 76.403,98.889 76.937,99.222 C 76.937,99.222 77.457,99.222 77.907,99.111 L 77.173,97.94 z M 80.354,97.607 C 80.354,97.607 79.378,97.718 78.698,97.385 L 79.26,98.307 C 79.26,98.307 79.62,98.693 80.024,98.96 C 80.403,99.211 80.877,99.352 81.049,99.028 C 81.17,98.796 81.061,98.488 80.918,98.251 C 80.704,97.895 80.354,97.607 80.354,97.607 z M 81.775,97.461 C 81.775,97.461 81.187,97.517 80.584,97.586 C 80.584,97.586 81.547,98.28 81.645,98.889 C 81.645,98.889 82.545,99.511 82.78,99.014 C 82.992,98.571 82.435,97.745 81.775,97.461 z"
         style="fill:#000000;fill-opacity:1;fill-rule:evenodd;stroke:none"
         id="path2801" /></g><g
       id="g2803"
       transform="matrix(3.5961261,0,0,3.5961261,-42.305698,-218.40281)"><path
         d="M 81.783,99.957 C 82.622,99.832 83.287,99.916 83.592,100.068 C 83.897,100.221 84.313,100.775 83.994,100.789 C 83.675,100.803 83.669,100.346 83.669,100.346 C 83.037,100.123 82.713,100.337 81.623,100.436 C 80.985,100.494 80.48,100.333 80.14,100.211 C 79.451,99.963 79.328,99.597 79.328,99.597 C 80.07,100.075 80.944,100.082 81.783,99.957 z"
         style="fill:#000000;fill-opacity:1;fill-rule:evenodd;stroke:none"
         id="path2805" /></g><g
       id="g2807"
       transform="matrix(3.5961261,0,0,3.5961261,-42.305698,-218.40281)"><path
         d="M 81.914,100.554 C 81.999,100.533 82.261,100.72 82.345,100.886 C 82.428,101.053 82.726,101.351 82.864,101.448 C 83.003,101.545 83.108,101.67 82.948,101.676 C 82.789,101.684 82.504,101.566 82.407,101.406 C 82.309,101.247 82.149,100.914 82.039,100.817 C 81.859,100.657 81.831,100.575 81.914,100.554 z"
         style="fill:#000000;fill-opacity:1;fill-rule:evenodd;stroke:none"
         id="path2809" /></g><g
       id="g2811"
       transform="matrix(3.5961261,0,0,3.5961261,-355.53063,-267.22684)"><path
         d="M 140.164,100.17 C 140.217,100.123 140.376,100.196 140.543,100.469 C 140.71,100.743 140.838,101.321 140.676,101.439 C 140.543,101.537 140.335,101.31 140.322,101.219 C 140.296,101.035 140.505,101.013 140.349,100.575 C 140.26,100.326 140.093,100.231 140.164,100.17 z"
         style="fill:#000000;fill-opacity:1;fill-rule:evenodd;stroke:none"
         id="path2813" /></g><g
       id="g2815"
       transform="matrix(3.5961261,0,0,3.5961261,-355.53063,-267.22684)"><path
         d="M 140.79,100.443 C 140.923,100.401 141.046,100.69 141.125,100.867 C 141.205,101.043 141.408,101.308 141.514,101.449 C 141.619,101.59 141.699,101.855 141.611,101.89 C 141.522,101.925 141.443,101.846 141.293,101.678 C 141.143,101.51 141.092,101.212 140.966,100.901 C 140.877,100.682 140.67,100.481 140.79,100.443 z"
         style="fill:#000000;fill-opacity:1;fill-rule:evenodd;stroke:none"
         id="path2817" /></g><g
       id="g2819"
       transform="matrix(3.5961261,0,0,3.5961261,-355.53063,-267.22684)"><path
         d="M 141.266,100.796 C 141.151,100.558 141.134,100.54 141.09,100.372 C 141.046,100.205 141.231,100.161 141.301,100.399 C 141.347,100.551 141.583,100.831 141.734,100.901 C 141.916,100.987 142.157,101.246 141.946,101.36 C 141.734,101.475 141.38,101.035 141.266,100.796 z"
         style="fill:#000000;fill-opacity:1;fill-rule:evenodd;stroke:none"
         id="path2821" /></g><g
       id="g2823"
       transform="matrix(3.5961261,0,0,3.5961261,-355.53063,-267.22684)"><path
         d="M 175.618,100.17 C 175.673,100.123 175.831,100.196 175.999,100.469 C 176.167,100.743 176.294,101.321 176.131,101.439 C 175.999,101.537 175.791,101.31 175.778,101.219 C 175.752,101.035 175.96,101.013 175.804,100.575 C 175.715,100.326 175.548,100.231 175.618,100.17 z"
         style="fill:#000000;fill-opacity:1;fill-rule:evenodd;stroke:none"
         id="path2825" /></g><g
       id="g2827"
       transform="matrix(3.5961261,0,0,3.5961261,-355.53063,-267.22684)"><path
         d="M 176.246,100.443 C 176.379,100.401 176.501,100.69 176.581,100.867 C 176.661,101.043 176.864,101.308 176.969,101.449 C 177.075,101.59 177.154,101.855 177.067,101.89 C 176.978,101.925 176.899,101.846 176.748,101.678 C 176.599,101.51 176.549,101.212 176.422,100.901 C 176.333,100.682 176.127,100.481 176.246,100.443 z"
         style="fill:#000000;fill-opacity:1;fill-rule:evenodd;stroke:none"
         id="path2829" /></g><g
       id="g2831"
       transform="matrix(3.5961261,0,0,3.5961261,-355.53063,-267.22684)"><path
         d="M 176.722,100.796 C 176.607,100.558 176.589,100.54 176.545,100.372 C 176.501,100.205 176.687,100.161 176.758,100.399 C 176.803,100.551 177.041,100.831 177.19,100.901 C 177.372,100.987 177.613,101.246 177.402,101.36 C 177.19,101.475 176.837,101.035 176.722,100.796 z"
         style="fill:#000000;fill-opacity:1;fill-rule:evenodd;stroke:none"
         id="path2833" /></g><g
       id="g2835"
       transform="matrix(3.5961261,0,0,3.5961261,-355.53063,-267.22684)"><path
         d="M 120.678,100.17 C 120.732,100.123 120.89,100.196 121.058,100.469 C 121.225,100.743 121.353,101.321 121.19,101.439 C 121.058,101.537 120.851,101.31 120.837,101.219 C 120.811,101.035 121.02,101.013 120.864,100.575 C 120.774,100.326 120.607,100.231 120.678,100.17 z"
         style="fill:#000000;fill-opacity:1;fill-rule:evenodd;stroke:none"
         id="path2837" /></g><g
       id="g2839"
       transform="matrix(3.5961261,0,0,3.5961261,-355.53063,-267.22684)"><path
         d="M 121.304,100.443 C 121.438,100.401 121.56,100.69 121.639,100.867 C 121.719,101.043 121.922,101.308 122.028,101.449 C 122.134,101.59 122.213,101.855 122.125,101.89 C 122.036,101.925 121.957,101.846 121.807,101.678 C 121.657,101.51 121.607,101.212 121.482,100.901 C 121.392,100.682 121.185,100.481 121.304,100.443 z"
         style="fill:#000000;fill-opacity:1;fill-rule:evenodd;stroke:none"
         id="path2841" /></g><g
       id="g2843"
       transform="matrix(3.5961261,0,0,3.5961261,-355.53063,-267.22684)"><path
         d="M 121.781,100.796 C 121.666,100.558 121.649,100.54 121.604,100.372 C 121.56,100.205 121.745,100.161 121.816,100.399 C 121.861,100.551 122.099,100.831 122.249,100.901 C 122.431,100.987 122.672,101.246 122.461,101.36 C 122.249,101.475 121.896,101.035 121.781,100.796 z"
         style="fill:#000000;fill-opacity:1;fill-rule:evenodd;stroke:none"
         id="path2845" /></g><g
       id="g2847"
       transform="matrix(3.5961261,0,0,3.5961261,-355.53063,-267.22684)"><path
         d="M 117.19,100.17 C 117.244,100.123 117.403,100.196 117.57,100.469 C 117.737,100.743 117.864,101.321 117.702,101.439 C 117.57,101.537 117.363,101.31 117.35,101.219 C 117.323,101.035 117.531,101.013 117.376,100.575 C 117.287,100.326 117.12,100.231 117.19,100.17 z"
         style="fill:#000000;fill-opacity:1;fill-rule:evenodd;stroke:none"
         id="path2849" /></g><g
       id="g2851"
       transform="matrix(3.5961261,0,0,3.5961261,-355.53063,-267.22684)"><path
         d="M 117.817,100.443 C 117.95,100.401 118.073,100.69 118.152,100.867 C 118.232,101.043 118.434,101.308 118.541,101.449 C 118.646,101.59 118.726,101.855 118.637,101.89 C 118.549,101.925 118.47,101.846 118.32,101.678 C 118.17,101.51 118.12,101.212 117.994,100.901 C 117.904,100.682 117.697,100.481 117.817,100.443 z"
         style="fill:#000000;fill-opacity:1;fill-rule:evenodd;stroke:none"
         id="path2853" /></g><g
       id="g2855"
       transform="matrix(3.5961261,0,0,3.5961261,-355.53063,-267.22684)"><path
         d="M 118.293,100.796 C 118.179,100.558 118.16,100.54 118.117,100.372 C 118.073,100.205 118.259,100.161 118.329,100.399 C 118.374,100.551 118.611,100.831 118.761,100.901 C 118.943,100.987 119.184,101.246 118.973,101.36 C 118.761,101.475 118.408,101.035 118.293,100.796 z"
         style="fill:#000000;fill-opacity:1;fill-rule:evenodd;stroke:none"
         id="path2857" /></g><g
       id="g2859"
       transform="matrix(3.5961261,0,0,3.5961261,-355.53063,-267.22684)"><path
         d="M 103.192,100.17 C 103.245,100.123 103.404,100.196 103.571,100.469 C 103.739,100.743 103.867,101.321 103.704,101.439 C 103.571,101.537 103.364,101.31 103.35,101.219 C 103.325,101.035 103.533,101.013 103.378,100.575 C 103.289,100.326 103.122,100.231 103.192,100.17 z"
         style="fill:#000000;fill-opacity:1;fill-rule:evenodd;stroke:none"
         id="path2861" /></g><g
       id="g2863"
       transform="matrix(3.5961261,0,0,3.5961261,-355.53063,-267.22684)"><path
         d="M 103.819,100.443 C 103.953,100.401 104.074,100.69 104.154,100.867 C 104.234,101.043 104.437,101.308 104.543,101.449 C 104.649,101.59 104.728,101.855 104.64,101.89 C 104.552,101.925 104.472,101.846 104.322,101.678 C 104.171,101.51 104.122,101.212 103.996,100.901 C 103.905,100.682 103.7,100.481 103.819,100.443 z"
         style="fill:#000000;fill-opacity:1;fill-rule:evenodd;stroke:none"
         id="path2865" /></g><g
       id="g2867"
       transform="matrix(3.5961261,0,0,3.5961261,-355.53063,-267.22684)"><path
         d="M 104.295,100.796 C 104.181,100.558 104.163,100.54 104.119,100.372 C 104.074,100.205 104.26,100.161 104.331,100.399 C 104.375,100.551 104.613,100.831 104.764,100.901 C 104.946,100.987 105.187,101.246 104.976,101.36 C 104.764,101.475 104.41,101.035 104.295,100.796 z"
         style="fill:#000000;fill-opacity:1;fill-rule:evenodd;stroke:none"
         id="path2869" /></g><g
       id="g2871"
       transform="matrix(3.5961261,0,0,3.5961261,-355.53063,-267.22684)"><path
         d="M 96.254,100.17 C 96.308,100.123 96.465,100.196 96.633,100.469 C 96.801,100.743 96.928,101.321 96.766,101.439 C 96.633,101.537 96.426,101.31 96.413,101.219 C 96.386,101.035 96.595,101.013 96.439,100.575 C 96.35,100.326 96.183,100.231 96.254,100.17 z"
         style="fill:#000000;fill-opacity:1;fill-rule:evenodd;stroke:none"
         id="path2873" /></g><g
       id="g2875"
       transform="matrix(3.5961261,0,0,3.5961261,-355.53063,-267.22684)"><path
         d="M 96.88,100.443 C 97.014,100.401 97.136,100.69 97.215,100.867 C 97.295,101.043 97.498,101.308 97.604,101.449 C 97.71,101.59 97.789,101.855 97.701,101.89 C 97.612,101.925 97.533,101.846 97.383,101.678 C 97.233,101.51 97.183,101.212 97.056,100.901 C 96.967,100.682 96.761,100.481 96.88,100.443 z"
         style="fill:#000000;fill-opacity:1;fill-rule:evenodd;stroke:none"
         id="path2877" /></g><g
       id="g2879"
       transform="matrix(3.5961261,0,0,3.5961261,-355.53063,-267.22684)"><path
         d="M 97.356,100.796 C 97.242,100.558 97.224,100.54 97.18,100.372 C 97.136,100.205 97.321,100.161 97.392,100.399 C 97.437,100.551 97.674,100.831 97.824,100.901 C 98.006,100.987 98.248,101.246 98.036,101.36 C 97.824,101.475 97.472,101.035 97.356,100.796 z"
         style="fill:#000000;fill-opacity:1;fill-rule:evenodd;stroke:none"
         id="path2881" /></g><g
       id="g2883"
       transform="matrix(3.5961261,0,0,3.5961261,-355.53063,-267.22684)"><path
         d="M 110.038,99.347 C 110.038,99.347 109.943,99.233 109.22,99.223 C 108.263,99.208 105.643,99.805 104.034,98.627 C 104.034,98.627 104.158,99.223 103.604,99.278 C 103.361,99.302 103.094,99.15 102.792,98.987 C 102.407,98.779 102.01,98.543 102.01,98.543 C 102.01,98.543 102.093,99.028 101.732,99.25 C 101.371,99.472 100.567,98.89 100.388,98.696 C 100.388,98.696 100.442,99.111 100.123,99.223 C 99.804,99.334 99.043,98.903 98.751,98.654 C 98.751,98.654 99,99.139 98.793,99.223 C 98.585,99.306 97.864,98.973 97.42,98.598 C 97.42,98.598 97.892,99.442 98.506,100.311 C 99.18,101.266 100.039,102.255 100.969,102.189 L 101.094,102.328 C 101.094,102.328 100.137,102.675 98.363,100.539 C 98.363,100.539 97.337,99.194 96.685,97.974 C 96.685,97.974 95.677,97.032 95.299,97.462 C 94.883,97.933 95.382,99.223 96.117,99.014 C 96.117,99.014 95.944,98.779 96.138,98.64 C 96.331,98.501 96.866,98.876 96.581,99.111 C 96.297,99.347 95.597,99.416 94.959,98.529 C 94.322,97.642 94.716,97.15 94.938,97.011 C 95.16,96.872 95.652,96.9 96.331,97.468 C 96.331,97.468 95.063,95.41 93.468,93.704 C 91.874,91.999 89.641,90.571 89.641,90.571 L 89.822,90.571 C 89.822,90.571 92.096,92.054 93.746,93.704 C 95.396,95.355 96.353,96.921 97.198,98.196 C 97.198,98.196 97.919,98.903 98.266,98.765 C 98.404,98.71 98.071,98.21 97.864,97.864 C 97.656,97.517 97.35,97.004 97.073,96.851 C 97.073,96.851 97.365,96.783 97.891,97.337 C 97.891,97.337 98.751,98.89 99.555,98.792 C 99.918,98.749 99.827,98.385 99.714,97.994 C 99.576,97.521 99.385,97.186 98.821,97.184 C 98.821,97.184 99.111,97.573 98.723,97.669 C 98.335,97.767 98.127,97.045 98.612,96.921 C 99.098,96.795 100.123,97.295 100.331,98.363 C 100.331,98.363 100.883,99.021 101.302,98.779 C 101.663,98.571 101.413,97.06 100.762,97.171 C 100.762,97.171 100.964,97.52 100.706,97.642 C 100.414,97.781 99.941,97.074 100.539,96.935 C 101.254,96.769 101.996,97.822 102.01,98.349 C 102.01,98.349 102.42,98.567 102.824,98.787 C 103.135,98.955 103.421,98.937 103.479,98.654 C 103.571,98.202 102.967,97.323 102.383,96.893 L 102.578,96.893 C 102.578,96.893 103.354,97.6 103.743,97.142 C 104.131,96.685 103.729,95.41 102.093,93.996 C 100.457,92.581 99.818,92.18 99.014,91.693 L 99.237,91.693 C 99.237,91.693 102.315,93.565 103.507,95.146 C 104.7,96.726 104.714,97.891 103.354,97.614 C 103.354,97.614 103.798,97.961 103.964,98.487 C 103.964,98.487 104.52,98.917 105.892,99.001 C 105.892,99.001 104.433,98.161 104.839,97.309 C 105.24,96.464 106.489,97.489 106.489,97.489 C 106.489,97.489 106.586,96.519 107.903,97.268 C 107.903,97.268 107.293,95.964 104.214,93.191 C 101.958,91.159 99.778,89.891 99.778,89.891 L 99.972,89.891 C 99.972,89.891 102.439,91.278 105.214,93.857 C 107.986,96.435 109.137,98.461 109.331,98.668 C 109.524,98.876 109.927,99.111 110.038,99.347 z M 106.502,97.697 C 106.502,97.697 105.587,96.935 105.351,97.434 C 104.967,98.247 106.295,99.001 106.295,99.001 C 106.724,99.028 107.626,98.945 107.626,98.945 C 106.461,98.336 106.502,97.697 106.502,97.697 z M 108.403,97.891 C 108.403,97.891 107.406,97.051 107.112,97.447 C 106.614,98.122 107.917,98.931 107.917,98.931 C 108.652,98.779 109.123,98.89 109.123,98.89 C 108.777,98.543 108.403,97.891 108.403,97.891 z"
         style="fill:#000000;fill-opacity:1;fill-rule:evenodd;stroke:none"
         id="path2885" /></g><g
       id="g2887"
       transform="matrix(3.5961261,0,0,3.5961261,-355.53063,-267.22684)"><path
         d="M 132.25,101.927 C 131.626,102.411 130.365,101.58 129.838,100.859 C 129.311,100.138 128.771,99.347 128.771,99.347 C 126.288,99.194 125.803,98.127 125.803,98.127 C 126.857,98.917 127.911,98.848 127.911,98.848 C 127.508,98.501 127.425,98.21 126.787,97.587 C 126.15,96.963 125.582,96.976 125.582,96.976 C 125.72,97.753 124.764,98.072 124.485,97.794 C 124.242,97.551 124.237,97.253 124.514,97.004 C 124.79,96.755 125.29,96.783 125.29,96.783 C 125.124,95.992 124.333,95.534 123.071,95.604 C 121.81,95.673 121.394,96.74 122.254,97.767 C 123.113,98.792 124.32,98.862 124.32,98.862 C 124.32,98.862 125.233,98.464 126.109,98.848 C 126.898,99.194 126.871,99.639 126.871,99.639 L 126.427,99.361 C 126.302,98.876 125.748,99.014 125.137,99.139 C 124.527,99.264 123.737,99.361 123.737,99.361 C 124.099,99.763 124.538,100.31 125.54,101.108 C 126.496,101.871 127.12,102.01 127.481,101.76 C 127.772,101.558 127.828,101.205 127.702,101.025 C 127.579,100.845 127.383,100.593 126.913,100.72 C 126.4,100.859 126.676,101.247 126.676,101.247 C 126.691,101.094 127.065,100.887 127.273,101.177 C 127.532,101.541 127.009,101.899 126.607,101.538 C 126.322,101.282 126.109,100.831 126.496,100.554 C 126.885,100.277 127.523,100.47 127.772,100.748 C 127.963,100.96 128.452,101.649 127.911,102.051 C 127.37,102.454 126.51,102.162 125.387,101.247 C 124.264,100.332 123.543,99.347 123.543,99.347 C 122.24,99.374 121.408,98.668 121.408,98.668 C 121.408,98.668 121.435,99.236 121.171,99.264 C 120.327,99.352 119.37,98.405 119.37,98.405 C 119.37,98.405 119.853,99.329 119.619,99.306 C 118.829,99.226 117.581,98.28 117.581,98.28 C 117.581,98.28 117.747,98.557 117.901,98.821 C 118.053,99.084 118.413,99.403 118.413,99.403 C 118.094,99.236 117.872,99.236 116.79,99.334 C 115.709,99.431 114.961,98.737 114.961,98.737 C 114.961,98.737 115.168,99.247 114.85,99.278 C 114.463,99.316 114.24,99.205 114.028,99.076 C 113.71,98.881 113.491,98.64 113.491,98.64 C 113.491,98.64 114.211,99.07 114.434,98.834 C 114.695,98.557 113.865,97.351 113.865,97.351 C 113.865,97.351 113.546,97.185 113.449,97.253 C 113.15,97.465 113.588,99.181 113.269,99.25 C 113.037,99.3 112.119,98.64 112.119,98.64 C 112.119,98.64 112.173,99.139 111.868,99.223 C 111.272,99.385 110.163,98.307 110.163,98.307 C 111.535,100.969 112.048,101.498 112.977,102.176 C 114.267,103.118 115.057,102.828 115.057,102.828 L 115.265,103.05 C 114.669,103.382 112.742,102.384 111.758,101.455 C 110.773,100.526 109.927,98.779 109.539,97.933 C 109.151,97.087 108.915,96.935 108.915,96.935 C 109.483,96.963 109.554,97.473 110.121,98.016 C 110.759,98.627 111.327,98.876 111.521,98.751 C 111.655,98.666 111.771,98.141 111.467,97.628 C 111.161,97.116 110.621,97.226 110.621,97.226 C 111.05,97.656 110.551,97.905 110.261,97.517 C 109.788,96.887 111.023,96.783 111.647,97.434 C 112.271,98.086 112.132,98.543 112.132,98.543 L 112.52,98.779 C 113.033,99.098 112.937,98.183 112.909,97.476 C 112.881,96.769 113.629,97.004 113.629,97.004 C 113.629,97.004 113.504,96.616 111.827,94.73 C 110.15,92.845 109.261,92.359 109.261,92.359 L 109.428,92.359 C 110.288,92.858 111.841,94.203 113.158,95.757 C 114.475,97.309 114.947,98.627 114.947,98.627 C 115.488,99.028 116.208,98.917 116.208,98.917 C 115.502,98.461 114.766,97.703 115.099,97.171 C 115.446,96.616 116.541,97.226 116.541,97.226 C 116.541,97.226 116.098,96.505 114.905,95.035 C 113.712,93.565 110.884,91.444 110.884,91.444 L 111.036,91.444 C 111.036,91.444 113.477,93.025 115.085,94.855 C 116.693,96.685 117.387,97.974 117.387,97.974 C 118.246,98.612 118.968,98.903 119.078,98.848 C 119.189,98.792 118.954,98.363 118.731,97.933 C 118.51,97.503 117.637,95.534 114.517,92.845 C 111.397,90.155 110.232,89.641 110.232,89.641 L 110.551,89.641 C 111.272,90.071 113.31,91.402 115.488,93.372 C 117.664,95.34 117.969,96.02 118.302,96.519 C 118.635,97.018 118.871,97.725 119.425,98.21 C 119.838,98.572 120.479,98.945 120.673,98.834 C 120.867,98.723 121.02,98.127 120.756,97.6 C 120.478,97.043 119.91,97.212 119.91,97.212 C 119.91,97.212 120.303,97.483 120.008,97.669 C 119.626,97.91 119.244,97.198 119.661,97.004 C 120.031,96.832 120.576,97.018 120.978,97.503 C 121.347,97.949 121.38,98.405 121.38,98.405 C 122.227,99.306 123.752,98.945 123.752,98.945 C 122.032,98.349 120.882,96.824 121.394,95.895 C 121.961,94.867 123.752,95.229 124.569,95.66 C 125.448,96.121 125.54,96.783 125.54,96.783 C 126.33,96.783 127.037,97.573 127.037,97.573 C 127.037,97.573 126.996,97.018 127.453,96.948 C 127.992,96.867 128.576,97.351 128.576,97.351 C 127.647,95.964 126.635,94.758 124.902,93.053 C 123.168,91.346 121.408,90.279 121.408,90.279 L 121.588,90.279 C 121.588,90.279 123.862,91.721 125.207,93.011 C 126.552,94.301 127.716,95.576 128.41,96.616 C 129.583,98.375 130.06,98.779 130.06,98.779 C 130.06,98.779 130.652,98.758 131.404,99.098 C 132.107,99.414 132.236,99.888 132.236,99.888 L 131.891,99.749 C 131.702,98.994 129.948,99.236 129.948,99.236 C 131.391,101.081 131.932,101.426 132.764,101.76 C 133.595,102.093 134.207,101.356 133.831,100.942 C 133.598,100.685 133.319,100.74 133.136,100.855 C 133.004,100.939 132.93,101.066 132.93,101.066 C 133.263,100.873 133.777,101.344 133.387,101.608 C 132.999,101.871 132.129,101.126 132.973,100.609 C 133.762,100.124 134.843,101.386 134.15,102.051 C 133.457,102.716 132.25,101.927 132.25,101.927 z M 125.286,96.991 C 125.23,96.97 124.983,97.034 124.793,97.155 C 124.589,97.285 124.528,97.53 124.581,97.592 C 124.673,97.699 124.887,97.626 125.06,97.479 C 125.321,97.258 125.286,96.991 125.286,96.991 z M 116.777,97.614 C 116.777,97.614 115.737,96.935 115.584,97.587 C 115.432,98.238 116.264,98.765 116.499,98.89 C 116.499,98.89 116.999,98.848 117.554,98.848 L 116.777,97.614 z M 128.812,97.683 C 128.812,97.683 127.873,96.956 127.62,97.683 C 127.411,98.28 128.312,98.876 128.312,98.876 C 128.312,98.876 128.729,98.876 128.993,98.834 C 129.256,98.792 129.63,98.779 129.63,98.779 C 129.63,98.779 129.325,98.418 128.812,97.683 z M 129.686,99.264 C 129.686,99.264 129.228,99.32 128.993,99.32 C 128.993,99.32 129.574,100.249 130.032,100.79 C 130.49,101.33 131.294,101.871 131.71,101.524 C 131.71,101.524 131.169,101.15 129.686,99.264 z"
         style="fill:#000000;fill-opacity:1;fill-rule:evenodd;stroke:none"
         id="path2889" /></g><g
       id="g2891"
       transform="matrix(3.5961261,0,0,3.5961261,-355.53063,-267.22684)"><path
         d="M 130.594,97.607 C 130.372,97.607 130.24,97.434 130.24,97.289 C 130.24,97.142 130.344,96.984 130.545,96.984 C 130.74,96.984 130.857,97.192 130.857,97.295 C 130.857,97.399 130.815,97.607 130.594,97.607 z"
         style="fill:#000000;fill-opacity:1;fill-rule:evenodd;stroke:none"
         id="path2893" /></g><g
       id="g2895"
       transform="matrix(3.5961261,0,0,3.5961261,-355.53063,-267.22684)"><path
         d="M 150.248,99.292 C 149.623,99.708 148.57,98.64 148.57,98.64 C 148.57,98.64 148.875,99.264 148.764,99.347 C 148.619,99.456 148.224,99.236 148.224,99.236 C 148.764,100.249 149.623,101.081 149.915,101.358 C 150.206,101.636 151.097,102.331 151.607,101.773 C 151.839,101.52 151.829,101.163 151.651,100.996 C 151.476,100.836 151.265,100.763 151.025,100.914 C 150.74,101.093 150.817,101.289 150.817,101.289 C 151.053,101.094 151.578,101.413 151.343,101.76 C 151.089,102.134 150.055,101.358 150.733,100.72 C 151.3,100.189 152.48,101.053 152.05,101.912 C 151.621,102.772 150.595,102.189 149.846,101.608 C 149.098,101.025 147.905,99.098 147.905,99.098 L 146.919,98.585 C 146.919,98.585 147.267,99.208 146.796,99.334 C 146.324,99.458 145.353,98.945 145.353,98.945 C 145.353,98.945 145.394,99.32 144.993,99.361 C 144.495,99.413 143.496,98.64 143.496,98.64 C 143.496,98.64 143.925,99.264 143.718,99.361 C 143.276,99.567 142.261,98.779 142.261,98.779 C 142.261,98.779 143.44,100.539 144.453,101.566 C 145.465,102.591 145.936,102.342 145.936,102.342 L 146.158,102.551 C 145.839,102.731 145.257,102.481 144.091,101.538 C 142.926,100.595 142.206,99.31 142.206,99.31 C 141.117,99.066 141.159,99.442 139.288,99.419 C 136.986,99.391 135.772,98.297 135.772,98.297 C 137.839,99.171 138.491,98.973 138.491,98.973 C 138.491,98.973 137.02,97.974 137.354,97.253 C 137.721,96.458 139.184,97.642 139.184,97.642 C 139.378,96.505 140.694,97.323 140.694,97.323 C 140.694,97.323 140.14,96.325 139.045,95.174 C 137.57,93.625 135.107,92.262 135.107,92.262 L 135.329,92.262 C 135.329,92.262 138.047,93.746 139.35,95.105 C 140.653,96.464 141.984,98.391 141.984,98.391 C 142.469,98.765 142.955,98.987 143.038,98.945 C 143.121,98.903 142.9,98.446 142.747,98.21 C 142.594,97.974 141.097,95.507 139.003,93.399 C 136.909,91.291 134.51,90.043 134.51,90.043 L 134.733,90.043 C 134.733,90.043 137.659,91.708 139.322,93.357 C 140.986,95.007 142.233,96.783 142.233,96.783 C 142.608,96.991 143.011,97.129 144.771,96.976 C 146.532,96.824 147.267,97.683 147.267,97.683 C 146.782,97.295 145.978,97.434 145.978,97.434 C 146.449,97.794 146.712,98.266 146.712,98.266 C 147.295,98.612 148.043,98.945 148.112,98.834 C 148.182,98.723 148.127,98.405 147.836,97.849 C 147.544,97.295 147.129,96.921 147.129,96.921 C 147.836,97.018 148.335,98.113 148.335,98.113 C 148.862,98.669 149.395,99.077 149.675,98.99 C 150.004,98.889 149.958,98.234 149.776,97.849 C 149.43,97.12 148.903,97.253 148.903,97.253 C 149.226,97.4 149.1,97.677 148.937,97.761 C 148.812,97.824 148.665,97.805 148.514,97.6 C 148.352,97.379 148.376,96.769 149.263,97.06 C 150.151,97.351 150.873,98.876 150.248,99.292 z M 139.211,97.864 C 139.211,97.864 138.214,97.073 137.922,97.683 C 137.63,98.293 138.836,98.973 138.836,98.973 C 138.836,98.973 139.628,98.876 140.099,98.876 C 140.099,98.876 139.336,98.405 139.211,97.864 z M 141.083,97.864 C 141.083,97.864 140.143,97.082 139.766,97.725 C 139.488,98.196 140.39,98.862 140.39,98.862 C 140.39,98.862 141.415,98.834 141.915,99.001 L 141.083,97.864 z M 144.175,97.503 C 144.175,97.503 143.107,97.462 142.51,97.129 L 143.162,98.1 C 143.162,98.1 144.368,99.315 144.785,98.821 C 145.159,98.377 144.175,97.503 144.175,97.503 z M 145.743,97.434 C 145.743,97.434 144.813,97.42 144.453,97.503 C 144.453,97.503 145.284,98.169 145.34,98.627 C 145.34,98.627 146.089,99.223 146.393,98.876 C 146.698,98.529 146.06,97.725 145.743,97.434 z"
         style="fill:#000000;fill-opacity:1;fill-rule:evenodd;stroke:none"
         id="path2897" /></g><g
       id="g2899"
       transform="matrix(3.5961261,0,0,3.5961261,-355.53063,-267.22684)"><path
         d="M 152.522,96.353 C 151.704,96.921 151.025,95.895 151.385,95.604 C 151.746,95.312 152.036,95.798 151.898,95.937 C 151.76,96.075 151.607,95.992 151.607,95.992 C 151.76,96.629 152.91,95.914 152.343,95.312 C 151.819,94.759 150.317,95.132 150.414,96.089 C 150.512,97.045 152.522,98.002 152.522,98.002 L 152.633,98.238 C 152.393,98.071 151.46,97.525 151.217,97.848 C 150.996,98.142 151.351,99.25 152.217,100.193 C 153.957,102.089 154.782,102.328 154.782,102.328 L 154.92,102.509 C 154.538,102.587 152.461,100.907 151.471,99.653 C 150.983,99.033 150.802,98.564 150.719,98.141 C 150.525,97.145 151.218,97.378 151.218,97.378 C 150.566,96.907 149.179,95.613 150.428,94.883 C 151.072,94.507 151.914,94.656 152.355,95.077 C 152.793,95.497 152.93,96.07 152.522,96.353 z"
         style="fill:#000000;fill-opacity:1;fill-rule:evenodd;stroke:none"
         id="path2901" /></g><g
       id="g2903"
       transform="matrix(3.5961261,0,0,3.5961261,-355.53063,-267.22684)"><path
         d="M 169.646,97.004 C 170.796,97.253 170.815,96.986 171.739,97.142 C 172.641,97.295 172.974,97.878 172.974,97.878 C 172.142,97.295 171.615,97.503 171.615,97.503 C 171.615,97.503 173.057,98.917 172.378,99.334 C 171.698,99.749 170.298,98.446 170.298,98.446 C 170.298,98.446 170.755,99.292 170.465,99.416 C 170.172,99.542 168.911,98.571 168.911,98.571 C 168.911,98.571 169.243,99.25 168.884,99.374 C 168.192,99.615 167.288,98.931 167.288,98.931 C 167.288,98.931 167.33,99.361 167.095,99.403 C 166.789,99.457 165.736,98.821 165.736,98.821 C 165.929,99.223 166.165,99.431 166.165,99.431 C 165.944,99.347 165.5,99.403 164.363,99.416 C 163.226,99.431 162.367,98.751 162.367,98.751 C 162.367,98.751 162.727,99.306 162.561,99.403 C 162.238,99.591 160.911,98.779 160.911,98.779 C 160.911,98.779 161.77,100.415 162.672,101.358 C 163.715,102.449 164.35,102.425 164.35,102.425 L 164.405,102.564 C 163.309,102.467 162.047,101.123 161.534,100.359 C 161.021,99.597 160.064,98.113 160.064,98.113 C 159.339,97.485 158.879,97.443 158.672,97.663 C 158.428,97.925 158.372,98.414 158.678,98.821 C 159.014,99.266 159.537,99.139 159.537,99.139 C 159.191,98.834 159.648,98.266 159.982,98.723 C 160.197,99.019 159.997,99.238 159.852,99.35 C 159.566,99.567 158.91,99.38 158.484,98.945 C 157.764,98.21 157.902,97.587 157.902,97.587 C 157.347,97.004 156.266,97.295 156.266,97.295 C 156.266,97.295 156.862,97.849 157.014,98.002 C 157.167,98.154 157.68,98.723 157.39,99.181 C 156.955,99.862 155.808,98.903 155.808,98.903 C 155.808,99.583 155.198,99.334 155.198,99.334 C 156.154,100.664 156.917,101.289 157.222,101.497 C 157.526,101.705 158.496,102.232 158.9,101.773 C 159.345,101.271 158.942,100.79 158.512,100.928 C 158.211,101.025 158.234,101.191 158.234,101.191 C 158.415,101.081 158.854,101.45 158.568,101.732 C 158.181,102.111 157.542,101.247 157.958,100.859 C 158.352,100.49 158.864,100.6 159.148,100.855 C 159.295,100.987 159.746,101.552 159.372,102.065 C 158.925,102.677 158.165,102.384 157.305,101.843 C 156.446,101.303 154.768,99.208 154.768,99.208 C 154.366,99.056 153.992,98.64 153.992,98.64 C 153.992,98.64 154.366,99.223 154.228,99.32 C 153.871,99.57 152.827,98.89 152.827,98.89 L 152.785,98.71 C 152.785,98.71 153.715,99.25 153.728,98.903 C 153.74,98.606 153.331,98.086 152.861,97.509 C 152.543,97.121 152.147,96.851 152.147,96.851 C 153.118,97.198 154.422,97.116 155.766,96.976 C 157.111,96.837 157.958,97.42 157.958,97.42 C 158.346,96.616 159.801,97.614 159.801,97.614 C 159.204,96.56 157.819,94.412 156.987,93.427 C 156.154,92.442 154.796,91.346 154.796,91.346 L 155.003,91.346 C 155.003,91.346 155.975,92.165 156.737,92.913 C 157.5,93.662 158.359,94.703 159.109,95.798 C 159.857,96.893 160.758,98.529 160.758,98.529 C 160.758,98.529 161.66,99.056 161.853,98.959 C 162.047,98.862 161.674,98.225 161.41,97.767 C 161.146,97.309 160.495,96.865 160.495,96.865 C 160.911,96.948 161.355,97.074 161.619,97.394 C 161.881,97.713 162.242,98.487 162.242,98.487 C 162.99,98.987 163.808,99.001 163.808,99.001 C 163.808,99.001 162.436,98.113 162.796,97.406 C 163.157,96.699 164.558,97.447 164.558,97.447 C 164.558,97.447 163.392,95.41 161.355,93.316 C 159.316,91.222 157.333,90.113 157.333,90.113 L 157.568,90.113 C 159.053,90.945 161.396,92.858 162.948,94.689 C 164.502,96.519 165.445,98.377 165.445,98.377 C 165.445,98.377 165.834,98.637 166.359,98.862 C 166.943,99.111 166.761,98.461 166.789,97.628 C 166.817,96.795 167.746,97.129 167.746,97.129 C 167.746,97.129 167.302,96.297 166.471,95.312 C 165.076,93.662 163.517,92.762 163.517,92.762 L 163.684,92.762 C 164.585,93.274 165.472,93.968 166.749,95.27 C 168.024,96.574 168.731,98.154 168.731,98.154 C 169.133,98.557 169.801,99.008 169.909,98.959 C 170.061,98.89 169.882,98.446 169.813,98.21 C 169.742,97.974 169.271,96.546 167.829,94.495 C 166.437,92.513 165.195,91.805 165.195,91.805 L 165.389,91.805 C 166.332,92.456 167.192,93.289 168.19,94.605 C 169.188,95.923 169.646,97.004 169.646,97.004 z M 154.615,97.462 C 154.615,97.462 153.673,97.489 153.049,97.268 C 153.049,97.268 154.377,99.16 155.088,98.917 C 155.697,98.71 154.962,97.697 154.615,97.462 z M 156.016,97.337 C 156.016,97.337 155.282,97.434 154.879,97.447 C 154.879,97.447 155.669,98.072 155.753,98.612 C 155.753,98.612 156.404,99.264 156.82,98.945 C 157.236,98.627 156.571,97.725 156.016,97.337 z M 164.765,97.822 C 164.765,97.822 163.566,97.038 163.337,97.753 C 163.101,98.487 164.211,99.014 164.211,99.014 C 164.211,99.014 164.946,99.042 165.43,98.945 L 164.765,97.822 z M 167.94,97.476 C 167.94,97.476 167.275,96.963 167.261,97.767 C 167.249,98.501 167.288,98.654 167.288,98.654 C 167.288,98.654 167.822,99.187 168.287,99.028 C 168.813,98.848 167.94,97.476 167.94,97.476 z M 171.171,98.848 C 171.539,99.029 171.841,99.076 171.902,98.919 C 172.021,98.61 171.715,97.872 171.351,97.544 C 171.351,97.544 170.63,97.697 169.826,97.337 C 169.826,97.337 170.285,98.411 171.171,98.848 z"
         style="fill:#000000;fill-opacity:1;fill-rule:evenodd;stroke:none"
         id="path2905" /></g><g
       id="g2907"
       transform="matrix(3.5961261,0,0,3.5961261,-355.53063,-267.22684)"><path
         d="M 160.644,100.504 C 160.81,100.642 161.227,101.186 161.364,101.422 C 161.503,101.66 161.227,101.66 161.008,101.442 C 160.791,101.225 160.703,100.909 160.525,100.682 C 160.347,100.454 160.198,100.415 160.278,100.336 C 160.357,100.257 160.476,100.365 160.644,100.504 z"
         style="fill:#000000;fill-opacity:1;fill-rule:evenodd;stroke:none"
         id="path2909" /></g><g
       id="g2911"
       transform="matrix(3.5961261,0,0,3.5961261,-355.53063,-267.22684)"><path
         d="M 163.738,101.442 C 163.521,101.225 163.432,100.909 163.254,100.682 C 163.077,100.454 162.927,100.415 163.007,100.336 C 163.086,100.257 163.206,100.365 163.374,100.504 C 163.54,100.642 163.956,101.186 164.094,101.422 C 164.232,101.66 163.956,101.66 163.738,101.442 z"
         style="fill:#000000;fill-opacity:1;fill-rule:evenodd;stroke:none"
         id="path2913" /></g><g
       id="g2915"
       transform="matrix(3.5961261,0,0,3.5961261,-355.53063,-267.22684)"><path
         d="M 172.246,100.767 C 172.415,100.906 172.829,101.449 172.968,101.686 C 173.107,101.923 172.829,101.923 172.612,101.705 C 172.395,101.488 172.306,101.172 172.128,100.945 C 171.951,100.717 171.802,100.678 171.881,100.599 C 171.96,100.52 172.079,100.628 172.246,100.767 z"
         style="fill:#000000;fill-opacity:1;fill-rule:evenodd;stroke:none"
         id="path2917" /></g><g
       id="g2919"
       transform="matrix(3.5961261,0,0,3.5961261,-355.53063,-267.22684)"><path
         d="M 172.516,99.944 C 173.744,99.816 173.68,100.748 173.68,100.748 C 173.584,100.443 173.098,100.249 172.35,100.373 C 171.837,100.459 170.893,100.496 170.394,100.249 C 169.833,99.97 169.618,99.527 169.618,99.527 C 170.465,100.401 171.449,100.054 172.516,99.944 z"
         style="fill:#000000;fill-opacity:1;fill-rule:evenodd;stroke:none"
         id="path2921" /></g><g
       id="g2923"
       transform="matrix(3.5961261,0,0,3.5961261,-355.53063,-267.22684)"><path
         d="M 183.193,101.788 C 182.829,102.057 181.896,101.07 182.72,100.623 C 183.244,100.339 183.663,100.606 183.967,101.011 C 184.287,101.43 184.386,101.928 184.01,102.245 C 183.203,102.926 182.027,101.968 181.168,101.247 C 180.308,100.526 179.365,99.472 179.365,99.472 C 177.909,99.472 176.398,98.612 176.398,98.612 C 176.398,98.612 176.593,99.542 175.802,99.431 C 174.944,99.311 174.096,98.501 174.096,98.501 C 174.096,98.501 174.728,99.739 173.889,99.431 C 172.925,99.077 172.6,98.612 172.6,98.612 C 172.6,98.612 173.529,99.223 173.709,99.07 C 173.889,98.917 173.723,98.487 173.529,98.072 C 173.333,97.656 173.057,96.824 171.213,94.217 C 169.396,91.65 167.205,90.043 167.205,90.043 L 167.414,90.043 C 169.133,91.389 169.965,92.442 171.241,93.898 C 172.516,95.355 173.847,97.961 173.847,97.961 C 174.096,98.225 174.538,98.727 175.137,98.945 C 175.747,99.167 176.079,98.598 175.719,97.878 C 175.358,97.156 174.651,97.378 174.651,97.378 C 174.929,97.42 174.956,97.92 174.527,97.905 C 174.106,97.891 173.86,97.004 174.929,97.116 C 175.857,97.211 176.343,98.405 176.343,98.405 C 178.312,99.431 179.81,98.917 179.81,98.917 C 177.841,98.363 176.468,96.671 177.411,95.742 C 177.965,95.195 178.752,94.983 179.541,94.969 C 180.264,94.955 180.596,95.103 181.171,95.371 C 182.669,96.069 182.68,97.849 181.348,97.669 C 180.017,97.489 180.155,96.242 180.891,96.31 C 181.626,96.38 181.362,96.948 181.112,96.948 C 180.863,96.948 180.78,96.671 180.78,96.671 C 180.544,96.769 180.614,97.018 180.614,97.018 C 180.974,97.683 181.985,97.462 182.041,96.865 C 182.097,96.269 181.037,95.228 179.865,95.355 C 178.559,95.495 177.244,96.145 177.743,97.295 C 178.242,98.446 180.378,98.821 180.378,98.821 C 181.293,98.461 181.775,98.418 182.635,98.696 C 183.495,98.973 183.91,99.71 183.91,99.71 L 183.372,99.532 C 182.894,98.63 182.139,98.831 181.395,99.068 C 180.644,99.308 179.643,99.444 179.643,99.444 C 180.364,100.346 180.668,100.595 181.722,101.4 C 182.777,102.204 183.33,102.01 183.553,101.843 C 183.774,101.677 183.94,101.274 183.704,101.038 C 183.468,100.803 183.248,100.79 182.998,100.873 C 182.749,100.956 182.734,101.261 182.734,101.261 C 183.123,101.04 183.512,101.552 183.193,101.788 z"
         style="fill:#000000;fill-opacity:1;fill-rule:evenodd;stroke:none"
         id="path2925" /></g><g
       id="g3551" /><path
       style="fill:#000000;fill-opacity:1;fill-rule:evenodd;stroke:none;stroke-width:1px;stroke-linecap:butt;stroke-linejoin:miter;stroke-opacity:1"
       d="M -3.0658508,134.88103 C -3.0658508,134.88103 -4.0610536,134.28393 -4.2999025,135.27916 C -4.5299206,136.23754 -2.1502669,137.07045 -0.15984481,135.91607 C 1.8305772,134.76162 2.3480802,132.97027 5.1744397,133.80624 C 8.0007994,134.64225 7.204638,132.13426 5.652129,132.73139 C 4.0996202,133.32855 3.3743384,131.54405 -0.75697517,134.00524 C -2.62796,135.11991 -2.62796,135.67719 -3.0658508,134.88103 z"
       id="path4666"
       sodipodi:nodetypes="csssssc" /><path
       sodipodi:nodetypes="csssssc"
       id="path4668"
       d="M -2.8821874,142.1181 C -2.8821874,142.1181 -4.1139072,141.86547 -3.9618227,143.19802 C -3.8153683,144.48128 -0.38751173,144.79538 1.1523616,142.4266 C 2.6922348,140.05777 1.7896419,137.17922 4.949614,136.84457 C 8.1095864,136.50987 6.3258592,133.82344 5.0054654,135.29988 C 3.6851093,136.77631 2.8142179,135.0207 -0.35640848,140.01698 C -1.7923061,142.2796 -2.1304758,142.88205 -2.8821874,142.1181 z"
       style="fill:#000000;fill-opacity:1;fill-rule:evenodd;stroke:none;stroke-width:1px;stroke-linecap:butt;stroke-linejoin:miter;stroke-opacity:1" /><path
       sodipodi:nodetypes="csssssc"
       id="path4670"
       d="M 301.92459,134.77789 C 301.92459,134.77789 302.87403,134.20827 303.10188,135.15771 C 303.32136,136.072 301.05116,136.86662 299.15225,135.76535 C 297.25338,134.66398 296.75962,132.95498 294.06324,133.75252 C 291.3669,134.55007 292.12643,132.15747 293.60758,132.72712 C 295.08867,133.29682 295.78057,131.59436 299.72194,133.9424 C 301.50686,135.00578 301.50686,135.53745 301.92459,134.77789 z"
       style="fill:#000000;fill-opacity:1;fill-rule:evenodd;stroke:none;stroke-width:1px;stroke-linecap:butt;stroke-linejoin:miter;stroke-opacity:1" /><path
       style="fill:#000000;fill-opacity:1;fill-rule:evenodd;stroke:none;stroke-width:1px;stroke-linecap:butt;stroke-linejoin:miter;stroke-opacity:1"
       d="M 301.74937,141.68214 C 301.74937,141.68214 302.92445,141.44109 302.77938,142.7124 C 302.63963,143.93664 299.36945,144.23627 297.90038,141.97642 C 296.43135,139.71658 297.29245,136.9704 294.27779,136.65115 C 291.26312,136.33185 292.96483,133.76894 294.22448,135.17744 C 295.48408,136.58606 296.31498,134.91112 299.33973,139.67761 C 300.70962,141.83623 301.03227,142.41089 301.74937,141.68214 z"
       id="path4672"
       sodipodi:nodetypes="csssssc" /></g></svg>